<?xml version="1.0" encoding="UTF-8" standalone="no"?>
<!DOCTYPE svg PUBLIC "-//W3C//DTD SVG 1.1//EN"
 "http://www.w3.org/Graphics/SVG/1.1/DTD/svg11.dtd">
<!-- Generated by graphviz version 2.40.1 (20161225.0304)
 -->
<!-- Title: %3 Pages: 1 -->
<svg width="873pt" height="252pt"
 viewBox="0.00 0.00 873.00 252.00" xmlns="http://www.w3.org/2000/svg" xmlns:xlink="http://www.w3.org/1999/xlink">
<g id="graph0" class="graph" transform="scale(1 1) rotate(0) translate(4 248)">
<title>%3</title>
<polygon fill="#ffffff" stroke="transparent" points="-4,4 -4,-248 869,-248 869,4 -4,4"/>
<!-- Customer -->
<g id="node1" class="node">
<title>Customer</title>
<polygon fill="#ececfc" stroke="transparent" points="8,-158 8,-186 75,-186 75,-158 8,-158"/>
<polygon fill="none" stroke="#000000" points="8.5,-158 8.5,-186 75.5,-186 75.5,-158 8.5,-158"/>
<text text-anchor="start" x="13.5" y="-169.2" font-family="'Fira Code'" font-weight="bold" font-size="16.00" fill="#000000">Customer</text>
</g>
<!-- AccountsReceivable -->
<g id="node2" class="node">
<title>AccountsReceivable</title>
<polygon fill="#ececfc" stroke="transparent" points="197,-212 197,-240 325,-240 325,-212 197,-212"/>
<polygon fill="none" stroke="#000000" points="197,-212 197,-240 325,-240 325,-212 197,-212"/>
<text text-anchor="start" x="202" y="-223.2" font-family="'Fira Code'" font-weight="bold" font-size="16.00" fill="#000000">AccountsReceivable</text>
</g>
<!-- Customer&#45;&#45;AccountsReceivable -->
<g id="edge2" class="edge">
<title>Customer&#45;&#45;AccountsReceivable</title>
<path fill="none" stroke="#7f7f7f" stroke-dasharray="5,2" d="M83.0443,-182.2205C112.8734,-189.5588 153.8393,-199.637 188.947,-208.274"/>
<text text-anchor="start" x="123.5" y="-202.8" font-family="Times,serif" font-size="14.00" fill="#000000"> pays </text>
<text text-anchor="start" x="182.947" y="-197.074" font-family="Times,serif" font-size="14.00" fill="#000000">1</text>
<text text-anchor="start" x="83.0443" y="-171.0205" font-family="Times,serif" font-size="14.00" fill="#000000">1</text>
</g>
<!-- Order -->
<g id="node3" class="node">
<title>Order</title>
<polygon fill="#ececfc" stroke="transparent" points="239.5,-158 239.5,-186 282.5,-186 282.5,-158 239.5,-158"/>
<polygon fill="none" stroke="#000000" points="240,-158 240,-186 283,-186 283,-158 240,-158"/>
<text text-anchor="start" x="245" y="-169.2" font-family="'Fira Code'" font-weight="bold" font-size="16.00" fill="#000000">Order</text>
</g>
<!-- Customer&#45;&#45;Order -->
<g id="edge3" class="edge">
<title>Customer&#45;&#45;Order</title>
<path fill="none" stroke="#7f7f7f" stroke-dasharray="5,2" d="M83.0443,-172C126.2965,-172 192.9638,-172 231.2349,-172"/>
<text text-anchor="start" x="120" y="-175.8" font-family="Times,serif" font-size="14.00" fill="#000000"> places </text>
<text text-anchor="start" x="225.2349" y="-160.8" font-family="Times,serif" font-size="14.00" fill="#000000">1</text>
<text text-anchor="start" x="83.0443" y="-160.8" font-family="Times,serif" font-size="14.00" fill="#000000">1</text>
</g>
<!-- Invoice -->
<g id="node4" class="node">
<title>Invoice</title>
<polygon fill="#ececfc" stroke="transparent" points="492.5,-132 492.5,-160 544.5,-160 544.5,-132 492.5,-132"/>
<polygon fill="none" stroke="#000000" points="492.5,-132 492.5,-160 544.5,-160 544.5,-132 492.5,-132"/>
<text text-anchor="start" x="497.5" y="-143.2" font-family="'Fira Code'" font-weight="bold" font-size="16.00" fill="#000000">Invoice</text>
</g>
<!-- Customer&#45;&#45;Invoice -->
<g id="edge1" class="edge">
<title>Customer&#45;&#45;Invoice</title>
<path fill="none" stroke="#7f7f7f" stroke-dasharray="5,2" d="M61.2309,-153.8757C79.2925,-139.2168 107.4762,-121 136,-121 136,-121 136,-121 389.5,-121 422.1219,-121 458.5505,-128.8007 484.3541,-135.6872"/>
<text text-anchor="start" x="241" y="-124.8" font-family="Times,serif" font-size="14.00" fill="#000000"> receives </text>
<text text-anchor="start" x="478.3541" y="-124.4872" font-family="Times,serif" font-size="14.00" fill="#000000">1</text>
<text text-anchor="start" x="55.2309" y="-142.6757" font-family="Times,serif" font-size="14.00" fill="#000000">1</text>
</g>
<!-- Order&#45;&#45;Invoice -->
<g id="edge4" class="edge">
<title>Order&#45;&#45;Invoice</title>
<path fill="none" stroke="#7f7f7f" stroke-dasharray="5,2" d="M290.5385,-169.0175C338.6241,-164.1622 433.5571,-154.5768 484.4223,-149.4409"/>
<text text-anchor="start" x="370" y="-163.8" font-family="Times,serif" font-size="14.00" fill="#000000"> initiates </text>
<text text-anchor="start" x="478.4223" y="-153.2409" font-family="Times,serif" font-size="14.00" fill="#000000">1</text>
<text text-anchor="start" x="290.5385" y="-157.8175" font-family="Times,serif" font-size="14.00" fill="#000000">1</text>
</g>
<!-- BillingAddress -->
<g id="node5" class="node">
<title>BillingAddress</title>
<polygon fill="#ececfc" stroke="transparent" points="754.5,-212 754.5,-240 849.5,-240 849.5,-212 754.5,-212"/>
<polygon fill="none" stroke="#000000" points="755,-212 755,-240 850,-240 850,-212 755,-212"/>
<text text-anchor="start" x="760" y="-223.2" font-family="'Fira Code'" font-weight="bold" font-size="16.00" fill="#000000">BillingAddress</text>
</g>
<!-- Invoice&#45;&#45;BillingAddress -->
<g id="edge5" class="edge">
<title>Invoice&#45;&#45;BillingAddress</title>
<path fill="none" stroke="#7f7f7f" stroke-dasharray="5,2" d="M552.8701,-157.5338C574.3687,-164.6116 602.6905,-173.6886 628,-181 667.2692,-192.3441 711.9118,-203.8617 746.1456,-212.4048"/>
<text text-anchor="start" x="645" y="-204.8" font-family="Times,serif" font-size="14.00" fill="#000000"> billed to </text>
<text text-anchor="start" x="740.1456" y="-201.2048" font-family="Times,serif" font-size="14.00" fill="#000000">1</text>
<text text-anchor="start" x="552.8701" y="-146.3338" font-family="Times,serif" font-size="14.00" fill="#000000">{0,1}</text>
</g>
<!-- ShippingAddress -->
<g id="node6" class="node">
<title>ShippingAddress</title>
<polygon fill="#ececfc" stroke="transparent" points="747,-158 747,-186 857,-186 857,-158 747,-158"/>
<polygon fill="none" stroke="#000000" points="747,-158 747,-186 857,-186 857,-158 747,-158"/>
<text text-anchor="start" x="752" y="-169.2" font-family="'Fira Code'" font-weight="bold" font-size="16.00" fill="#000000">ShippingAddress</text>
</g>
<!-- Invoice&#45;&#45;ShippingAddress -->
<g id="edge6" class="edge">
<title>Invoice&#45;&#45;ShippingAddress</title>
<path fill="none" stroke="#7f7f7f" stroke-dasharray="5,2" d="M552.6967,-149.1362C598.7187,-153.3569 681.4342,-160.9428 738.9068,-166.2137"/>
<text text-anchor="start" x="648.5" y="-165.8" font-family="Times,serif" font-size="14.00" fill="#000000"> sent to </text>
<text text-anchor="start" x="732.9068" y="-155.0137" font-family="Times,serif" font-size="14.00" fill="#000000">1</text>
<text text-anchor="start" x="552.6967" y="-137.9362" font-family="Times,serif" font-size="14.00" fill="#000000">{0,1}</text>
</g>
<!-- OrderedItems -->
<g id="node7" class="node">
<title>OrderedItems</title>
<polygon fill="#ececfc" stroke="transparent" points="757.5,-104 757.5,-132 846.5,-132 846.5,-104 757.5,-104"/>
<polygon fill="none" stroke="#000000" points="758,-104 758,-132 847,-132 847,-104 758,-104"/>
<text text-anchor="start" x="763" y="-115.2" font-family="'Fira Code'" font-weight="bold" font-size="16.00" fill="#000000">OrderedItems</text>
</g>
<!-- Invoice&#45;&#45;OrderedItems -->
<g id="edge7" class="edge">
<title>Invoice&#45;&#45;OrderedItems</title>
<path fill="none" stroke="#7f7f7f" stroke-dasharray="5,2" d="M552.6967,-142.6225C601.5904,-137.7935 691.9,-128.8741 749.3558,-123.1994"/>
<text text-anchor="start" x="644.5" y="-138.8" font-family="Times,serif" font-size="14.00" fill="#000000"> contains </text>
<text text-anchor="start" x="730.3558" y="-111.9994" font-family="Times,serif" font-size="14.00" fill="#000000">0..N</text>
<text text-anchor="start" x="552.6967" y="-131.4225" font-family="Times,serif" font-size="14.00" fill="#000000">1</text>
</g>
<!-- PackingList -->
<g id="node8" class="node">
<title>PackingList</title>
<polygon fill="#ececfc" stroke="transparent" points="763,-28 763,-56 841,-56 841,-28 763,-28"/>
<polygon fill="none" stroke="#000000" points="763,-28 763,-56 841,-56 841,-28 763,-28"/>
<text text-anchor="start" x="768" y="-39.2" font-family="'Fira Code'" font-weight="bold" font-size="16.00" fill="#000000">PackingList</text>
</g>
<!-- Invoice&#45;&#45;PackingList -->
<g id="edge8" class="edge">
<title>Invoice&#45;&#45;PackingList</title>
<path fill="none" stroke="#7f7f7f" stroke-dasharray="5,2" d="M552.6967,-133.4552C603.2104,-114.9246 697.9298,-80.1774 754.9558,-59.2578"/>
<text text-anchor="start" x="628" y="-108.8" font-family="Times,serif" font-size="14.00" fill="#000000"> used to generate </text>
<text text-anchor="start" x="748.9558" y="-48.0578" font-family="Times,serif" font-size="14.00" fill="#000000">1</text>
<text text-anchor="start" x="546.6967" y="-122.2552" font-family="Times,serif" font-size="14.00" fill="#000000">1</text>
</g>
<!-- ShippingDepartment -->
<g id="node9" class="node">
<title>ShippingDepartment</title>
<polygon fill="#ececfc" stroke="transparent" points="454,-4 454,-32 583,-32 583,-4 454,-4"/>
<polygon fill="none" stroke="#000000" points="454.5,-4 454.5,-32 583.5,-32 583.5,-4 454.5,-4"/>
<text text-anchor="start" x="459.5" y="-15.2" font-family="'Fira Code'" font-weight="bold" font-size="16.00" fill="#000000">ShippingDepartment</text>
</g>
<!-- ShippingDepartment&#45;&#45;PackingList -->
<g id="edge9" class="edge">
<title>ShippingDepartment&#45;&#45;PackingList</title>
<path fill="none" stroke="#7f7f7f" stroke-dasharray="5,2" d="M591.3108,-23.1596C625.0063,-25.6488 665.5583,-28.7882 702,-32 719.2934,-33.5242 738.2505,-35.3742 754.9655,-37.0665"/>
<text text-anchor="start" x="646" y="-35.8" font-family="Times,serif" font-size="14.00" fill="#000000"> filed by </text>
<text text-anchor="start" x="748.9655" y="-25.8665" font-family="Times,serif" font-size="14.00" fill="#000000">1</text>
<text text-anchor="start" x="591.3108" y="-11.9596" font-family="Times,serif" font-size="14.00" fill="#000000">1</text>
</g>
</g>
</svg>
