<?xml version="1.0" encoding="UTF-8" standalone="no"?>
<!DOCTYPE svg PUBLIC "-//W3C//DTD SVG 1.1//EN"
 "http://www.w3.org/Graphics/SVG/1.1/DTD/svg11.dtd">
<!-- Generated by graphviz version 2.40.1 (20161225.0304)
 -->
<!-- Title: std Pages: 1 -->
<svg width="587pt" height="179pt"
 viewBox="0.00 0.00 587.20 179.00" xmlns="http://www.w3.org/2000/svg" xmlns:xlink="http://www.w3.org/1999/xlink">
<g id="graph0" class="graph" transform="scale(1 1) rotate(0) translate(4 175)">
<title>std</title>
<polygon fill="#ffffff" stroke="transparent" points="-4,4 -4,-175 583.2,-175 583.2,4 -4,4"/>
<!-- HasEmergency -->
<g id="node1" class="node">
<title>HasEmergency</title>
<text text-anchor="middle" x="39.2" y="-71" font-family="Fira Code" font-size="8.00" fill="#0000ff">Has Emergency</text>
<text text-anchor="middle" x="39.2" y="-61.4" font-family="Fira Code" font-size="8.00" fill="#0000ff">Sequence</text>
<text text-anchor="middle" x="39.2" y="-51.8" font-family="Fira Code" font-size="8.00" fill="#0000ff">Occurred?</text>
</g>
<!-- IsRemote -->
<g id="node2" class="node">
<title>IsRemote</title>
<text text-anchor="middle" x="165.6" y="-109" font-family="Fira Code" font-size="8.00" fill="#0000ff">Is Remote</text>
<text text-anchor="middle" x="165.6" y="-99.4" font-family="Fira Code" font-size="8.00" fill="#0000ff">Notification</text>
<text text-anchor="middle" x="165.6" y="-89.8" font-family="Fira Code" font-size="8.00" fill="#0000ff">Enabled?</text>
</g>
<!-- HasEmergency&#45;&gt;IsRemote -->
<g id="edge1" class="edge">
<title>HasEmergency&#45;&gt;IsRemote</title>
<path fill="none" stroke="#000000" d="M78.5009,-74.8151C92.9554,-79.1606 109.3659,-84.0942 124.0149,-88.4981"/>
<polygon fill="#000000" stroke="#000000" points="123.6177,-90.2061 128.9099,-89.9698 124.6255,-86.8543 123.6177,-90.2061"/>
<text text-anchor="middle" x="103.6" y="-88.2" font-family="Fira Code" font-size="8.00" fill="#ff0000">Yes</text>
</g>
<!-- DoNothing1 -->
<g id="node3" class="node">
<title>DoNothing1</title>
<text text-anchor="middle" x="165.6" y="-45.4" font-family="Fira Code" font-size="8.00" fill="#0000ff">Do Nothing</text>
</g>
<!-- HasEmergency&#45;&gt;DoNothing1 -->
<g id="edge9" class="edge">
<title>HasEmergency&#45;&gt;DoNothing1</title>
<path fill="none" stroke="#000000" d="M78.5009,-58.0252C94.3878,-56.0142 112.6376,-53.7041 128.3145,-51.7197"/>
<polygon fill="#000000" stroke="#000000" points="128.7846,-53.4242 133.5252,-51.0601 128.345,-49.9519 128.7846,-53.4242"/>
<text text-anchor="middle" x="103.6" y="-59.2" font-family="Fira Code" font-size="8.00" fill="#ff0000">No</text>
</g>
<!-- InitiateEmergency -->
<g id="node4" class="node">
<title>InitiateEmergency</title>
<text text-anchor="middle" x="282.4" y="-134" font-family="Fira Code" font-size="8.00" fill="#0000ff">Initiate</text>
<text text-anchor="middle" x="282.4" y="-124.4" font-family="Fira Code" font-size="8.00" fill="#0000ff">Emergency</text>
<text text-anchor="middle" x="282.4" y="-114.8" font-family="Fira Code" font-size="8.00" fill="#0000ff">Message</text>
</g>
<!-- IsRemote&#45;&gt;InitiateEmergency -->
<g id="edge2" class="edge">
<title>IsRemote&#45;&gt;InitiateEmergency</title>
<path fill="none" stroke="#000000" d="M202.2358,-108.8416C216.6552,-111.9279 233.1402,-115.4564 247.3967,-118.5078"/>
<polygon fill="#000000" stroke="#000000" points="247.2847,-120.2734 252.5402,-119.6088 248.0173,-116.851 247.2847,-120.2734"/>
<text text-anchor="middle" x="227.6" y="-119.2" font-family="Fira Code" font-size="8.00" fill="#ff0000">Yes</text>
</g>
<!-- IsLocal -->
<g id="node5" class="node">
<title>IsLocal</title>
<text text-anchor="middle" x="282.4" y="-79" font-family="Fira Code" font-size="8.00" fill="#0000ff">Is Local</text>
<text text-anchor="middle" x="282.4" y="-69.4" font-family="Fira Code" font-size="8.00" fill="#0000ff">Alarm</text>
<text text-anchor="middle" x="282.4" y="-59.8" font-family="Fira Code" font-size="8.00" fill="#0000ff">Enabled?</text>
</g>
<!-- IsRemote&#45;&gt;IsLocal -->
<g id="edge6" class="edge">
<title>IsRemote&#45;&gt;IsLocal</title>
<path fill="none" stroke="#000000" d="M202.2358,-91.5901C217.6232,-87.6379 235.3629,-83.0815 250.2364,-79.2612"/>
<polygon fill="#000000" stroke="#000000" points="250.7556,-80.9347 255.163,-77.9958 249.8848,-77.5448 250.7556,-80.9347"/>
<text text-anchor="middle" x="227.6" y="-90.2" font-family="Fira Code" font-size="8.00" fill="#ff0000">No</text>
</g>
<!-- DidRemote -->
<g id="node6" class="node">
<title>DidRemote</title>
<text text-anchor="middle" x="404" y="-134" font-family="Fira Code" font-size="8.00" fill="#0000ff">Did Remote</text>
<text text-anchor="middle" x="404" y="-124.4" font-family="Fira Code" font-size="8.00" fill="#0000ff">Security</text>
<text text-anchor="middle" x="404" y="-114.8" font-family="Fira Code" font-size="8.00" fill="#0000ff">Respond?</text>
</g>
<!-- InitiateEmergency&#45;&gt;DidRemote -->
<g id="edge3" class="edge">
<title>InitiateEmergency&#45;&gt;DidRemote</title>
<path fill="none" stroke="#000000" d="M312.1467,-126C328.459,-126 348.8478,-126 366.2695,-126"/>
<polygon fill="#000000" stroke="#000000" points="366.5732,-127.7501 371.5732,-126 366.5731,-124.2501 366.5732,-127.7501"/>
</g>
<!-- ActivateSiren1 -->
<g id="node7" class="node">
<title>ActivateSiren1</title>
<text text-anchor="middle" x="404" y="-70.4" font-family="Fira Code" font-size="8.00" fill="#0000ff">Activate Siren</text>
</g>
<!-- IsLocal&#45;&gt;ActivateSiren1 -->
<g id="edge7" class="edge">
<title>IsLocal&#45;&gt;ActivateSiren1</title>
<path fill="none" stroke="#000000" d="M309.6894,-71.2244C323.5299,-71.3382 340.7395,-71.4798 356.6544,-71.6106"/>
<polygon fill="#000000" stroke="#000000" points="356.981,-73.3633 361.9952,-71.6546 357.0098,-69.8634 356.981,-73.3633"/>
<text text-anchor="middle" x="337.2" y="-75.2" font-family="Fira Code" font-size="8.00" fill="#ff0000">Yes</text>
</g>
<!-- DoNothing2 -->
<g id="node8" class="node">
<title>DoNothing2</title>
<text text-anchor="middle" x="404" y="-16.4" font-family="Fira Code" font-size="8.00" fill="#0000ff">Do Nothing</text>
</g>
<!-- IsLocal&#45;&gt;DoNothing2 -->
<g id="edge8" class="edge">
<title>IsLocal&#45;&gt;DoNothing2</title>
<path fill="none" stroke="#000000" d="M309.6894,-59.1058C326.6021,-51.7343 348.5458,-42.17 367.0101,-34.1222"/>
<polygon fill="#000000" stroke="#000000" points="367.74,-35.7132 371.6243,-32.1111 366.3415,-32.5047 367.74,-35.7132"/>
<text text-anchor="middle" x="337.2" y="-53.2" font-family="Fira Code" font-size="8.00" fill="#ff0000">No</text>
</g>
<!-- DoNothing3 -->
<g id="node9" class="node">
<title>DoNothing3</title>
<text text-anchor="middle" x="537.6" y="-151.4" font-family="Fira Code" font-size="8.00" fill="#0000ff">Do Nothing</text>
</g>
<!-- DidRemote&#45;&gt;DoNothing3 -->
<g id="edge4" class="edge">
<title>DidRemote&#45;&gt;DoNothing3</title>
<path fill="none" stroke="#000000" d="M436.0005,-132.4672C455.3574,-136.3791 480.1232,-141.3842 500.357,-145.4734"/>
<polygon fill="#000000" stroke="#000000" points="500.1499,-147.2168 505.3975,-146.492 500.8433,-143.7862 500.1499,-147.2168"/>
<text text-anchor="middle" x="470.8" y="-144.2" font-family="Fira Code" font-size="8.00" fill="#ff0000">Yes</text>
</g>
<!-- ActivateSiren2 -->
<g id="node10" class="node">
<title>ActivateSiren2</title>
<text text-anchor="middle" x="537.6" y="-97.4" font-family="Fira Code" font-size="8.00" fill="#0000ff">Activate Siren</text>
</g>
<!-- DidRemote&#45;&gt;ActivateSiren2 -->
<g id="edge5" class="edge">
<title>DidRemote&#45;&gt;ActivateSiren2</title>
<path fill="none" stroke="#000000" d="M436.0005,-119.5328C452.3709,-116.2244 472.6099,-112.1342 490.7044,-108.4774"/>
<polygon fill="#000000" stroke="#000000" points="491.1919,-110.1643 495.7462,-107.4585 490.4986,-106.7337 491.1919,-110.1643"/>
<text text-anchor="middle" x="470.8" y="-117.2" font-family="Fira Code" font-size="8.00" fill="#ff0000">No</text>
</g>
</g>
</svg>
