<?xml version="1.0" encoding="UTF-8" standalone="no"?>
<!DOCTYPE svg PUBLIC "-//W3C//DTD SVG 1.1//EN"
 "http://www.w3.org/Graphics/SVG/1.1/DTD/svg11.dtd">
<!-- Generated by graphviz version 2.40.1 (20161225.0304)
 -->
<!-- Title: std Pages: 1 -->
<svg width="250pt" height="226pt"
 viewBox="0.00 0.00 249.84 226.40" xmlns="http://www.w3.org/2000/svg" xmlns:xlink="http://www.w3.org/1999/xlink">
<g id="graph0" class="graph" transform="scale(1 1) rotate(0) translate(4 222.3999)">
<title>std</title>
<polygon fill="#ffffff" stroke="transparent" points="-4,4 -4,-222.3999 245.8387,-222.3999 245.8387,4 -4,4"/>
<!-- Off -->
<g id="node1" class="node">
<title>Off</title>
<ellipse fill="none" stroke="#000000" cx="114.4387" cy="-200.3999" rx="27" ry="18"/>
<text text-anchor="middle" x="114.4387" y="-198.7999" font-family="Fira Code" font-size="8.00" fill="#0000ff">Off</text>
</g>
<!-- EvenLit -->
<g id="node2" class="node">
<title>EvenLit</title>
<ellipse fill="none" stroke="#000000" cx="77.4387" cy="-118.7999" rx="31.3616" ry="18"/>
<text text-anchor="middle" x="77.4387" y="-117.1999" font-family="Fira Code" font-size="8.00" fill="#0000ff">Even Lit</text>
</g>
<!-- Off&#45;&gt;EvenLit -->
<g id="edge11" class="edge">
<title>Off&#45;&gt;EvenLit</title>
<path fill="none" stroke="#000000" d="M106.5919,-183.0946C101.0375,-170.8448 93.5394,-154.3085 87.5384,-141.074"/>
<polygon fill="#000000" stroke="#000000" points="89.0603,-140.1926 85.4017,-136.3616 85.8727,-141.638 89.0603,-140.1926"/>
<text text-anchor="middle" x="102.2387" y="-157.9999" font-family="Fira Code" font-size="8.00" fill="#ff0000">On</text>
</g>
<!-- EvenLit&#45;&gt;Off -->
<g id="edge3" class="edge">
<title>EvenLit&#45;&gt;Off</title>
<path fill="none" stroke="#000000" d="M74.5869,-136.7713C73.9699,-145.4423 74.383,-155.8024 78.0387,-164.3999 81.0905,-171.5773 86.3269,-178.064 91.8917,-183.4903"/>
<polygon fill="#000000" stroke="#000000" points="90.9126,-184.968 95.774,-187.0729 93.2863,-182.3959 90.9126,-184.968"/>
<text text-anchor="middle" x="85.6387" y="-157.9999" font-family="Fira Code" font-size="8.00" fill="#ff0000">Off</text>
</g>
<!-- OddLit -->
<g id="node3" class="node">
<title>OddLit</title>
<ellipse fill="none" stroke="#000000" cx="178.4387" cy="-118.7999" rx="28.3583" ry="18"/>
<text text-anchor="middle" x="178.4387" y="-117.1999" font-family="Fira Code" font-size="8.00" fill="#0000ff">Odd Lit</text>
</g>
<!-- EvenLit&#45;&gt;OddLit -->
<g id="edge2" class="edge">
<title>EvenLit&#45;&gt;OddLit</title>
<path fill="none" stroke="#000000" d="M108.8421,-118.7999C120.1911,-118.7999 133.0491,-118.7999 144.5981,-118.7999"/>
<polygon fill="#000000" stroke="#000000" points="144.8022,-120.55 149.8021,-118.7999 144.8021,-117.05 144.8022,-120.55"/>
<text text-anchor="middle" x="129.3143" y="-124.9999" font-family="Fira Code" font-size="8.00" fill="#ff0000">Count</text>
</g>
<!-- EvenLit_Out -->
<g id="node4" class="node">
<title>EvenLit_Out</title>
<ellipse fill="none" stroke="#000000" cx="50.4387" cy="-18" rx="50.3774" ry="18"/>
<text text-anchor="middle" x="50.4387" y="-16.4" font-family="Fira Code" font-size="8.00" fill="#0000ff">Even Lit / LOUT</text>
</g>
<!-- EvenLit&#45;&gt;EvenLit_Out -->
<g id="edge1" class="edge">
<title>EvenLit&#45;&gt;EvenLit_Out</title>
<path fill="none" stroke="#000000" d="M72.6116,-100.7789C68.1472,-84.1117 61.4882,-59.2516 56.6332,-41.1262"/>
<polygon fill="#000000" stroke="#000000" points="58.2991,-40.5818 55.315,-36.2048 54.9183,-41.4874 58.2991,-40.5818"/>
<text text-anchor="middle" x="81.8387" y="-76.3999" font-family="Fira Code" font-size="8.00" fill="#ff0000">Light</text>
<text text-anchor="middle" x="81.8387" y="-66.8" font-family="Fira Code" font-size="8.00" fill="#ff0000">burned</text>
<text text-anchor="middle" x="81.8387" y="-57.2" font-family="Fira Code" font-size="8.00" fill="#ff0000">out</text>
</g>
<!-- OddLit&#45;&gt;Off -->
<g id="edge6" class="edge">
<title>OddLit&#45;&gt;Off</title>
<path fill="none" stroke="#000000" d="M165.6015,-135.1673C155.4474,-148.1138 141.2179,-166.2564 130.3423,-180.1228"/>
<polygon fill="#000000" stroke="#000000" points="128.7918,-179.2641 127.083,-184.2784 131.5458,-181.4241 128.7918,-179.2641"/>
<text text-anchor="middle" x="155.6387" y="-157.9999" font-family="Fira Code" font-size="8.00" fill="#ff0000">Off</text>
</g>
<!-- OddLit&#45;&gt;EvenLit -->
<g id="edge4" class="edge">
<title>OddLit&#45;&gt;EvenLit</title>
<path fill="none" stroke="#000000" d="M153.9653,-109.2432C149.8022,-107.9807 145.4778,-106.8873 141.3143,-106.2 130.79,-104.4627 127.8563,-104.574 117.3143,-106.2 114.6235,-106.615 111.8654,-107.1787 109.1174,-107.8388"/>
<polygon fill="#000000" stroke="#000000" points="108.5964,-106.1661 104.1988,-109.1196 109.4785,-109.5531 108.5964,-106.1661"/>
<text text-anchor="middle" x="129.3143" y="-109.3999" font-family="Fira Code" font-size="8.00" fill="#ff0000">Count</text>
</g>
<!-- OddLit_Out -->
<g id="node5" class="node">
<title>OddLit_Out</title>
<ellipse fill="none" stroke="#000000" cx="190.4387" cy="-18" rx="47.8757" ry="18"/>
<text text-anchor="middle" x="190.4387" y="-16.4" font-family="Fira Code" font-size="8.00" fill="#0000ff">Odd Lit / LOUT</text>
</g>
<!-- OddLit&#45;&gt;OddLit_Out -->
<g id="edge5" class="edge">
<title>OddLit&#45;&gt;OddLit_Out</title>
<path fill="none" stroke="#000000" d="M180.584,-100.7789C182.5513,-84.2541 185.4772,-59.676 187.6301,-41.5924"/>
<polygon fill="#000000" stroke="#000000" points="189.418,-41.3767 188.2714,-36.2048 185.9426,-40.9629 189.418,-41.3767"/>
<text text-anchor="middle" x="199.8387" y="-76.3999" font-family="Fira Code" font-size="8.00" fill="#ff0000">Light</text>
<text text-anchor="middle" x="199.8387" y="-66.8" font-family="Fira Code" font-size="8.00" fill="#ff0000">burned</text>
<text text-anchor="middle" x="199.8387" y="-57.2" font-family="Fira Code" font-size="8.00" fill="#ff0000">out</text>
</g>
<!-- EvenLit_Out&#45;&gt;Off -->
<g id="edge7" class="edge">
<title>EvenLit_Out&#45;&gt;Off</title>
<path fill="none" stroke="#000000" d="M39.03,-35.8803C25.2082,-60.0118 5.7887,-103.7814 23.0387,-136.7999 36.1876,-161.9686 64.3393,-179.1936 85.9477,-189.3044"/>
<polygon fill="#000000" stroke="#000000" points="85.4528,-191.0017 90.7289,-191.4768 86.9006,-187.8152 85.4528,-191.0017"/>
<text text-anchor="middle" x="30.6387" y="-117.1999" font-family="Fira Code" font-size="8.00" fill="#ff0000">Off</text>
</g>
<!-- EvenLit_Out&#45;&gt;OddLit_Out -->
<g id="edge8" class="edge">
<title>EvenLit_Out&#45;&gt;OddLit_Out</title>
<path fill="none" stroke="#000000" d="M100.9819,-18C112.7695,-18 125.3567,-18 137.2549,-18"/>
<polygon fill="#000000" stroke="#000000" points="137.3076,-19.7501 142.3076,-18 137.3076,-16.2501 137.3076,-19.7501"/>
<text text-anchor="middle" x="121.8143" y="-24.2" font-family="Fira Code" font-size="8.00" fill="#ff0000">1 sec</text>
</g>
<!-- OddLit_Out&#45;&gt;Off -->
<g id="edge9" class="edge">
<title>OddLit_Out&#45;&gt;Off</title>
<path fill="none" stroke="#000000" d="M207.2785,-34.9103C211.7935,-40.5226 216.0746,-47.1098 218.4387,-54 230.3894,-88.8309 234.1231,-105.0681 215.4387,-136.7999 199.6351,-163.6391 167.5711,-180.8867 143.789,-190.5535"/>
<polygon fill="#000000" stroke="#000000" points="142.858,-189.0394 138.8487,-192.5019 144.1421,-192.2954 142.858,-189.0394"/>
<text text-anchor="middle" x="234.6387" y="-117.1999" font-family="Fira Code" font-size="8.00" fill="#ff0000">Off</text>
</g>
<!-- OddLit_Out&#45;&gt;EvenLit_Out -->
<g id="edge10" class="edge">
<title>OddLit_Out&#45;&gt;EvenLit_Out</title>
<path fill="none" stroke="#000000" d="M150.7149,-8.0141C145.074,-6.9319 139.3202,-6.0052 133.8143,-5.4 121.7182,-4.0705 108.6868,-4.9328 96.6029,-6.7038"/>
<polygon fill="#000000" stroke="#000000" points="96.1519,-5.0034 91.4875,-7.5147 96.6999,-8.4602 96.1519,-5.0034"/>
<text text-anchor="middle" x="121.8143" y="-8.6" font-family="Fira Code" font-size="8.00" fill="#ff0000">1 sec</text>
</g>
</g>
</svg>
