<svg xmlns="http://www.w3.org/2000/svg" width="1116.140625px" height="782px" class="sequence simple"><desc></desc><defs><marker viewBox="0 0 5 5" markerWidth="5" markerHeight="5" orient="auto" refX="5" refY="2.5" id="markerArrowBlock"><path d="M 0 0 L 5 2.5 L 0 5 z"/></marker><marker viewBox="0 0 9.6 16" markerWidth="4" markerHeight="16" orient="auto" refX="9.6" refY="8" id="markerArrowOpen"><path d="M 9.6,8 1.92,16 0,13.7 5.76,8 0,2.286 1.92,0 9.6,8 z"/></marker></defs><g class="title"/><g class="actor"><rect x="10" y="20" width="48.796875" height="38" stroke="#000000" fill="#ffffff" style="stroke-width: 2;"/><text x="20" y="44.5" style="font-size: 16px; font-family: &quot;Andale Mono&quot;, monospace;"><tspan x="20">HAN</tspan></text></g><g class="actor"><rect x="10" y="724" width="48.796875" height="38" stroke="#000000" fill="#ffffff" style="stroke-width: 2;"/><text x="20" y="748.5" style="font-size: 16px; font-family: &quot;Andale Mono&quot;, monospace;"><tspan x="20">HAN</tspan></text></g><line x1="34.3984375" x2="34.3984375" y1="58" y2="724" stroke="#000000" fill="none" style="stroke-width: 2;"/><g class="actor"><rect x="284.4296875" y="20" width="96.8125" height="38" stroke="#000000" fill="#ffffff" style="stroke-width: 2;"/><text x="294.4296875" y="44.5" style="font-size: 16px; font-family: &quot;Andale Mono&quot;, monospace;"><tspan x="294.4296875">Platform</tspan></text></g><g class="actor"><rect x="284.4296875" y="724" width="96.8125" height="38" stroke="#000000" fill="#ffffff" style="stroke-width: 2;"/><text x="294.4296875" y="748.5" style="font-size: 16px; font-family: &quot;Andale Mono&quot;, monospace;"><tspan x="294.4296875">Platform</tspan></text></g><line x1="332.8359375" x2="332.8359375" y1="58" y2="724" stroke="#000000" fill="none" style="stroke-width: 2;"/><g class="actor"><rect x="698.890625" y="20" width="39.203125" height="38" stroke="#000000" fill="#ffffff" style="stroke-width: 2;"/><text x="708.890625" y="44.5" style="font-size: 16px; font-family: &quot;Andale Mono&quot;, monospace;"><tspan x="708.890625">EE</tspan></text></g><g class="actor"><rect x="698.890625" y="724" width="39.203125" height="38" stroke="#000000" fill="#ffffff" style="stroke-width: 2;"/><text x="708.890625" y="748.5" style="font-size: 16px; font-family: &quot;Andale Mono&quot;, monospace;"><tspan x="708.890625">EE</tspan></text></g><line x1="718.4921875" x2="718.4921875" y1="58" y2="724" stroke="#000000" fill="none" style="stroke-width: 2;"/><g class="actor"><rect x="815.703125" y="20" width="77.609375" height="38" stroke="#000000" fill="#ffffff" style="stroke-width: 2;"/><text x="825.703125" y="44.5" style="font-size: 16px; font-family: &quot;Andale Mono&quot;, monospace;"><tspan x="825.703125">Client</tspan></text></g><g class="actor"><rect x="815.703125" y="724" width="77.609375" height="38" stroke="#000000" fill="#ffffff" style="stroke-width: 2;"/><text x="825.703125" y="748.5" style="font-size: 16px; font-family: &quot;Andale Mono&quot;, monospace;"><tspan x="825.703125">Client</tspan></text></g><line x1="854.5078125" x2="854.5078125" y1="58" y2="724" stroke="#000000" fill="none" style="stroke-width: 2;"/><g class="actor"><rect x="1046.9375" y="20" width="39.203125" height="38" stroke="#000000" fill="#ffffff" style="stroke-width: 2;"/><text x="1056.9375" y="44.5" style="font-size: 16px; font-family: &quot;Andale Mono&quot;, monospace;"><tspan x="1056.9375">PS</tspan></text></g><g class="actor"><rect x="1046.9375" y="724" width="39.203125" height="38" stroke="#000000" fill="#ffffff" style="stroke-width: 2;"/><text x="1056.9375" y="748.5" style="font-size: 16px; font-family: &quot;Andale Mono&quot;, monospace;"><tspan x="1056.9375">PS</tspan></text></g><line x1="1066.5390625" x2="1066.5390625" y1="58" y2="724" stroke="#000000" fill="none" style="stroke-width: 2;"/><g class="signal"><text x="44.3984375" y="88.5" style="font-size: 16px; font-family: &quot;Andale Mono&quot;, monospace;"><tspan x="44.3984375">Collect "Actual" Master Reads</tspan></text><line x1="34.3984375" x2="332.8359375" y1="96" y2="96" stroke="#000000" fill="none" style="stroke-width: 2; marker-end: url(&quot;#markerArrowBlock&quot;);"/></g><g class="signal"><text x="357.8359375" y="130" style="font-size: 16px; font-family: &quot;Andale Mono&quot;, monospace;"><tspan x="357.8359375">validation</tspan></text><line x1="332.8359375" x2="352.8359375" y1="116" y2="116" stroke="#000000" fill="none" style="stroke-width: 2;"/><line x1="352.8359375" x2="352.8359375" y1="116" y2="139" stroke="#000000" fill="none" style="stroke-width: 2;"/><line x1="352.8359375" x2="332.8359375" y1="139" y2="139" stroke="#000000" fill="none" style="stroke-width: 2; marker-end: url(&quot;#markerArrowBlock&quot;);"/></g><g class="signal"><text x="44.3984375" y="164.5" style="font-size: 16px; font-family: &quot;Andale Mono&quot;, monospace;"><tspan x="44.3984375">Collect "Actual" Master Reads</tspan></text><line x1="34.3984375" x2="332.8359375" y1="172" y2="172" stroke="#000000" fill="none" style="stroke-width: 2; marker-end: url(&quot;#markerArrowBlock&quot;);"/></g><g class="signal"><text x="357.8359375" y="206" style="font-size: 16px; font-family: &quot;Andale Mono&quot;, monospace;"><tspan x="357.8359375">validation</tspan></text><line x1="332.8359375" x2="352.8359375" y1="192" y2="192" stroke="#000000" fill="none" style="stroke-width: 2;"/><line x1="352.8359375" x2="352.8359375" y1="192" y2="215" stroke="#000000" fill="none" style="stroke-width: 2;"/><line x1="352.8359375" x2="332.8359375" y1="215" y2="215" stroke="#000000" fill="none" style="stroke-width: 2; marker-end: url(&quot;#markerArrowBlock&quot;);"/></g><g class="signal"><text x="357.8359375" y="244" style="font-size: 16px; font-family: &quot;Andale Mono&quot;, monospace;"><tspan x="357.8359375">Generate "Raw" Export (Actual Reads)</tspan></text><line x1="332.8359375" x2="352.8359375" y1="230" y2="230" stroke="#000000" fill="none" style="stroke-width: 2;"/><line x1="352.8359375" x2="352.8359375" y1="230" y2="253" stroke="#000000" fill="none" style="stroke-width: 2;"/><line x1="352.8359375" x2="332.8359375" y1="253" y2="253" stroke="#000000" fill="none" style="stroke-width: 2; marker-end: url(&quot;#markerArrowBlock&quot;);"/></g><g class="signal"><text x="381.640625" y="278.5" style="font-size: 16px; font-family: &quot;Andale Mono&quot;, monospace;"><tspan x="381.640625">Download/Transmit "Raw" Export</tspan></text><line x1="332.8359375" x2="718.4921875" y1="286" y2="286" stroke="#000000" fill="none" style="stroke-width: 2; marker-end: url(&quot;#markerArrowBlock&quot;);"/></g><g class="signal"><text x="743.4921875" y="320" style="font-size: 16px; font-family: &quot;Andale Mono&quot;, monospace;"><tspan x="743.4921875">Estimation</tspan></text><line x1="718.4921875" x2="738.4921875" y1="306" y2="306" stroke="#000000" fill="none" style="stroke-width: 2;"/><line x1="738.4921875" x2="738.4921875" y1="306" y2="329" stroke="#000000" fill="none" style="stroke-width: 2;"/><line x1="738.4921875" x2="718.4921875" y1="329" y2="329" stroke="#000000" fill="none" style="stroke-width: 2; marker-end: url(&quot;#markerArrowBlock&quot;);"/></g><g class="signal"><text x="376.84375" y="354.5" style="font-size: 16px; font-family: &quot;Andale Mono&quot;, monospace;"><tspan x="376.84375">Fill in "Estimated" meter Reads</tspan></text><line x1="718.4921875" x2="332.8359375" y1="362" y2="362" stroke="#000000" fill="none" style="stroke-width: 2; marker-end: url(&quot;#markerArrowBlock&quot;);"/></g><g class="signal"><text x="357.8359375" y="396" style="font-size: 16px; font-family: &quot;Andale Mono&quot;, monospace;"><tspan x="357.8359375">Generate "Raw" Export</tspan></text><line x1="332.8359375" x2="352.8359375" y1="382" y2="382" stroke="#000000" fill="none" style="stroke-width: 2;"/><line x1="352.8359375" x2="352.8359375" y1="382" y2="405" stroke="#000000" fill="none" style="stroke-width: 2;"/><line x1="352.8359375" x2="332.8359375" y1="405" y2="405" stroke="#000000" fill="none" style="stroke-width: 2; marker-end: url(&quot;#markerArrowBlock&quot;);"/></g><g class="signal"><text x="357.8359375" y="434" style="font-size: 16px; font-family: &quot;Andale Mono&quot;, monospace;"><tspan x="357.8359375">Generate "Completed" Export</tspan></text><line x1="332.8359375" x2="352.8359375" y1="420" y2="420" stroke="#000000" fill="none" style="stroke-width: 2;"/><line x1="352.8359375" x2="352.8359375" y1="420" y2="443" stroke="#000000" fill="none" style="stroke-width: 2;"/><line x1="352.8359375" x2="332.8359375" y1="443" y2="443" stroke="#000000" fill="none" style="stroke-width: 2; marker-end: url(&quot;#markerArrowBlock&quot;);"/></g><g class="signal"><text x="357.8359375" y="472" style="font-size: 16px; font-family: &quot;Andale Mono&quot;, monospace;"><tspan x="357.8359375">Generate "TOU Bucket" Export</tspan></text><line x1="332.8359375" x2="352.8359375" y1="458" y2="458" stroke="#000000" fill="none" style="stroke-width: 2;"/><line x1="352.8359375" x2="352.8359375" y1="458" y2="481" stroke="#000000" fill="none" style="stroke-width: 2;"/><line x1="352.8359375" x2="332.8359375" y1="481" y2="481" stroke="#000000" fill="none" style="stroke-width: 2; marker-end: url(&quot;#markerArrowBlock&quot;);"/></g><g class="signal"><text x="492.859375" y="506.5" style="font-size: 16px; font-family: &quot;Andale Mono&quot;, monospace;"><tspan x="492.859375">Download "Raw" Export</tspan></text><line x1="332.8359375" x2="854.5078125" y1="514" y2="514" stroke="#000000" fill="none" style="stroke-width: 2; marker-end: url(&quot;#markerArrowBlock&quot;);"/></g><g class="signal"><text x="464.0546875" y="544.5" style="font-size: 16px; font-family: &quot;Andale Mono&quot;, monospace;"><tspan x="464.0546875">Download "Completed" Export</tspan></text><line x1="332.8359375" x2="854.5078125" y1="552" y2="552" stroke="#000000" fill="none" style="stroke-width: 2; marker-end: url(&quot;#markerArrowBlock&quot;);"/></g><g class="signal"><text x="459.25" y="582.5" style="font-size: 16px; font-family: &quot;Andale Mono&quot;, monospace;"><tspan x="459.25">Download "TOU Bucket" Export</tspan></text><line x1="332.8359375" x2="854.5078125" y1="590" y2="590" stroke="#000000" fill="none" style="stroke-width: 2; marker-end: url(&quot;#markerArrowBlock&quot;);"/></g><g class="signal"><text x="902.9140625" y="620.5" style="font-size: 16px; font-family: &quot;Andale Mono&quot;, monospace;"><tspan x="902.9140625">Trigger File</tspan></text><line x1="854.5078125" x2="1066.5390625" y1="628" y2="628" stroke="#000000" fill="none" style="stroke-width: 2; marker-end: url(&quot;#markerArrowBlock&quot;);"/></g><g class="signal"><text x="608.4765625" y="658.5" style="font-size: 16px; font-family: &quot;Andale Mono&quot;, monospace;"><tspan x="608.4765625">Invoke Core Service</tspan></text><line x1="332.8359375" x2="1066.5390625" y1="666" y2="666" stroke="#000000" fill="none" style="stroke-width: 2; marker-end: url(&quot;#markerArrowBlock&quot;);"/></g><g class="signal"><text x="864.5078125" y="696.5" style="font-size: 16px; font-family: &quot;Andale Mono&quot;, monospace;"><tspan x="864.5078125">Billing Determinants</tspan></text><line x1="1066.5390625" x2="854.5078125" y1="704" y2="704" stroke="#000000" fill="none" style="stroke-width: 2; marker-end: url(&quot;#markerArrowBlock&quot;);"/></g></svg>