<?xml version="1.0" encoding="UTF-8" standalone="no"?>
<!DOCTYPE svg PUBLIC "-//W3C//DTD SVG 1.1//EN"
 "http://www.w3.org/Graphics/SVG/1.1/DTD/svg11.dtd">
<!-- Generated by graphviz version 2.40.1 (20161225.0304)
 -->
<!-- Title: std Pages: 1 -->
<svg width="325pt" height="443pt"
 viewBox="0.00 0.00 324.75 442.88" xmlns="http://www.w3.org/2000/svg" xmlns:xlink="http://www.w3.org/1999/xlink">
<g id="graph0" class="graph" transform="scale(1 1) rotate(0) translate(4 438.8789)">
<title>std</title>
<polygon fill="#ffffff" stroke="transparent" points="-4,4 -4,-438.8789 320.752,-438.8789 320.752,4 -4,4"/>
<!-- IsUserAuthorized -->
<g id="node1" class="node">
<title>IsUserAuthorized</title>
<polygon fill="none" stroke="#000000" points="230.376,-434.9671 172.2319,-407.791 230.376,-380.6149 288.5201,-407.791 230.376,-434.9671"/>
<text text-anchor="middle" x="230.376" y="-410.935" font-family="Helvetica Neue" font-size="8.00" fill="#0000ff">Is user</text>
<text text-anchor="middle" x="230.376" y="-401.391" font-family="Helvetica Neue" font-size="8.00" fill="#0000ff">authorized?</text>
</g>
<!-- IsChemicalAvailable -->
<g id="node2" class="node">
<title>IsChemicalAvailable</title>
<polygon fill="none" stroke="#000000" points="177.376,-335.2474 121.2673,-308.0713 177.376,-280.8952 233.4847,-308.0713 177.376,-335.2474"/>
<text text-anchor="middle" x="177.376" y="-311.2152" font-family="Helvetica Neue" font-size="8.00" fill="#0000ff">Is chemical</text>
<text text-anchor="middle" x="177.376" y="-301.6713" font-family="Helvetica Neue" font-size="8.00" fill="#0000ff">available?</text>
</g>
<!-- IsUserAuthorized&#45;&gt;IsChemicalAvailable -->
<g id="edge2" class="edge">
<title>IsUserAuthorized&#45;&gt;IsChemicalAvailable</title>
<path fill="none" stroke="#000000" d="M218.6136,-385.66C210.5987,-370.58 199.9466,-350.538 191.4765,-334.6014"/>
<polygon fill="#000000" stroke="#000000" points="192.8151,-333.3912 188.9232,-329.7974 189.7245,-335.0338 192.8151,-333.3912"/>
<text text-anchor="middle" x="212.524" y="-356.3031" font-family="Helvetica Neue" font-size="8.00" fill="#ff0000">yes</text>
</g>
<!-- IsUserAuthorizedReject -->
<g id="node5" class="node">
<title>IsUserAuthorizedReject</title>
<polygon fill="none" stroke="#000000" points="316.6285,-326.0713 252.1235,-326.0713 252.1235,-290.0713 316.6285,-290.0713 316.6285,-326.0713"/>
<text text-anchor="middle" x="284.376" y="-306.4433" font-family="Helvetica Neue" font-size="8.00" fill="#0000ff">reject request</text>
</g>
<!-- IsUserAuthorized&#45;&gt;IsUserAuthorizedReject -->
<g id="edge1" class="edge">
<title>IsUserAuthorized&#45;&gt;IsUserAuthorizedReject</title>
<path fill="none" stroke="#000000" d="M242.3604,-385.66C251.2217,-369.2961 263.247,-347.0894 272.1623,-330.6259"/>
<polygon fill="#000000" stroke="#000000" points="273.7471,-331.3743 274.5892,-326.1442 270.6694,-329.7076 273.7471,-331.3743"/>
<text text-anchor="middle" x="263.896" y="-356.3031" font-family="Helvetica Neue" font-size="8.00" fill="#ff0000">no</text>
</g>
<!-- IsChemicalHazardous -->
<g id="node3" class="node">
<title>IsChemicalHazardous</title>
<polygon fill="none" stroke="#000000" points="123.376,-235.5276 65.6117,-208.3516 123.376,-181.1755 181.1403,-208.3516 123.376,-235.5276"/>
<text text-anchor="middle" x="123.376" y="-211.4955" font-family="Helvetica Neue" font-size="8.00" fill="#0000ff">Is chemical</text>
<text text-anchor="middle" x="123.376" y="-201.9516" font-family="Helvetica Neue" font-size="8.00" fill="#0000ff">hazardous?</text>
</g>
<!-- IsChemicalAvailable&#45;&gt;IsChemicalHazardous -->
<g id="edge3" class="edge">
<title>IsChemicalAvailable&#45;&gt;IsChemicalHazardous</title>
<path fill="none" stroke="#000000" d="M165.6588,-286.4336C157.4363,-271.2494 146.3942,-250.8583 137.6561,-234.722"/>
<polygon fill="#000000" stroke="#000000" points="139.1766,-233.8548 135.2568,-230.2914 136.0989,-235.5215 139.1766,-233.8548"/>
<text text-anchor="middle" x="158.524" y="-256.5834" font-family="Helvetica Neue" font-size="8.00" fill="#ff0000">yes</text>
</g>
<!-- IsChemicalAvailableReject -->
<g id="node6" class="node">
<title>IsChemicalAvailableReject</title>
<polygon fill="none" stroke="#000000" points="263.6285,-226.3516 199.1235,-226.3516 199.1235,-190.3516 263.6285,-190.3516 263.6285,-226.3516"/>
<text text-anchor="middle" x="231.376" y="-206.7235" font-family="Helvetica Neue" font-size="8.00" fill="#0000ff">reject request</text>
</g>
<!-- IsChemicalAvailable&#45;&gt;IsChemicalAvailableReject -->
<g id="edge4" class="edge">
<title>IsChemicalAvailable&#45;&gt;IsChemicalAvailableReject</title>
<path fill="none" stroke="#000000" d="M189.0932,-286.4336C197.9395,-270.0975 210.0494,-247.7346 219.0426,-231.1272"/>
<polygon fill="#000000" stroke="#000000" points="220.6491,-231.8355 221.4912,-226.6054 217.5714,-230.1688 220.6491,-231.8355"/>
<text text-anchor="middle" x="210.896" y="-256.5834" font-family="Helvetica Neue" font-size="8.00" fill="#ff0000">no</text>
</g>
<!-- IsUserTrained -->
<g id="node4" class="node">
<title>IsUserTrained</title>
<polygon fill="none" stroke="#000000" points="74.376,-135.8079 28.9912,-108.6318 74.376,-81.4558 119.7608,-108.6318 74.376,-135.8079"/>
<text text-anchor="middle" x="74.376" y="-111.7758" font-family="Helvetica Neue" font-size="8.00" fill="#0000ff">Is user</text>
<text text-anchor="middle" x="74.376" y="-102.2318" font-family="Helvetica Neue" font-size="8.00" fill="#0000ff">trained?</text>
</g>
<!-- IsChemicalHazardous&#45;&gt;IsUserTrained -->
<g id="edge6" class="edge">
<title>IsChemicalHazardous&#45;&gt;IsUserTrained</title>
<path fill="none" stroke="#000000" d="M112.5013,-186.2205C104.9891,-170.9325 94.971,-150.5447 87.0894,-134.5048"/>
<polygon fill="#000000" stroke="#000000" points="88.4929,-133.3927 84.7171,-129.677 85.3516,-134.9363 88.4929,-133.3927"/>
<text text-anchor="middle" x="106.524" y="-156.8637" font-family="Helvetica Neue" font-size="8.00" fill="#ff0000">yes</text>
</g>
<!-- IsChemicalHazardousAccept -->
<g id="node7" class="node">
<title>IsChemicalHazardousAccept</title>
<polygon fill="none" stroke="#000000" points="207.3738,-126.6318 137.3782,-126.6318 137.3782,-90.6318 207.3738,-90.6318 207.3738,-126.6318"/>
<text text-anchor="middle" x="172.376" y="-107.0038" font-family="Helvetica Neue" font-size="8.00" fill="#0000ff">accept request</text>
</g>
<!-- IsChemicalHazardous&#45;&gt;IsChemicalHazardousAccept -->
<g id="edge5" class="edge">
<title>IsChemicalHazardous&#45;&gt;IsChemicalHazardousAccept</title>
<path fill="none" stroke="#000000" d="M134.2507,-186.2205C142.2228,-169.9965 153.0171,-148.0291 161.0852,-131.6098"/>
<polygon fill="#000000" stroke="#000000" points="162.8609,-131.9641 163.4954,-126.7048 159.7196,-130.4205 162.8609,-131.9641"/>
<text text-anchor="middle" x="153.896" y="-156.8637" font-family="Helvetica Neue" font-size="8.00" fill="#ff0000">no</text>
</g>
<!-- IsUserTrainedReject -->
<g id="node8" class="node">
<title>IsUserTrainedReject</title>
<polygon fill="none" stroke="#000000" points="64.6285,-36 .1235,-36 .1235,0 64.6285,0 64.6285,-36"/>
<text text-anchor="middle" x="32.376" y="-16.372" font-family="Helvetica Neue" font-size="8.00" fill="#0000ff">reject request</text>
</g>
<!-- IsUserTrained&#45;&gt;IsUserTrainedReject -->
<g id="edge8" class="edge">
<title>IsUserTrained&#45;&gt;IsUserTrainedReject</title>
<path fill="none" stroke="#000000" d="M64.4226,-87.1534C57.9715,-73.2326 49.5762,-55.1164 42.9968,-40.9187"/>
<polygon fill="#000000" stroke="#000000" points="44.5307,-40.0665 40.8406,-36.2657 41.3551,-41.5381 44.5307,-40.0665"/>
<text text-anchor="middle" x="57.896" y="-57.1439" font-family="Helvetica Neue" font-size="8.00" fill="#ff0000">no</text>
</g>
<!-- IsUserTrainedAccept -->
<g id="node9" class="node">
<title>IsUserTrainedAccept</title>
<polygon fill="none" stroke="#000000" points="152.3738,-36 82.3782,-36 82.3782,0 152.3738,0 152.3738,-36"/>
<text text-anchor="middle" x="117.376" y="-16.372" font-family="Helvetica Neue" font-size="8.00" fill="#0000ff">accept request</text>
</g>
<!-- IsUserTrained&#45;&gt;IsUserTrainedAccept -->
<g id="edge7" class="edge">
<title>IsUserTrained&#45;&gt;IsUserTrainedAccept</title>
<path fill="none" stroke="#000000" d="M84.5664,-87.1534C91.171,-73.2326 99.7662,-55.1164 106.5023,-40.9187"/>
<polygon fill="#000000" stroke="#000000" points="108.1477,-41.5332 108.7099,-36.2657 104.9855,-40.0329 108.1477,-41.5332"/>
<text text-anchor="middle" x="106.524" y="-57.1439" font-family="Helvetica Neue" font-size="8.00" fill="#ff0000">yes</text>
</g>
</g>
</svg>
