<?xml version="1.0" encoding="UTF-8" standalone="no"?>
<!DOCTYPE svg PUBLIC "-//W3C//DTD SVG 1.1//EN"
 "http://www.w3.org/Graphics/SVG/1.1/DTD/svg11.dtd">
<!-- Generated by graphviz version 2.40.1 (20161225.0304)
 -->
<!-- Title: std Pages: 1 -->
<svg width="792pt" height="354pt"
 viewBox="0.00 0.00 792.20 353.90" xmlns="http://www.w3.org/2000/svg" xmlns:xlink="http://www.w3.org/1999/xlink">
<g id="graph0" class="graph" transform="scale(1 1) rotate(0) translate(4 349.8955)">
<title>std</title>
<polygon fill="#ffffff" stroke="transparent" points="-4,4 -4,-349.8955 788.204,-349.8955 788.204,4 -4,4"/>
<!-- Begin -->
<g id="node1" class="node">
<title>Begin</title>
<ellipse fill="#006400" stroke="#000000" cx="431.528" cy="-323.8955" rx="18" ry="18"/>
</g>
<!-- CurrentRequestList -->
<g id="node4" class="node">
<title>CurrentRequestList</title>
<polygon fill="none" stroke="#000000" points="509.1767,-264.8076 419.8793,-264.8076 419.8793,-228.8076 509.1767,-228.8076 509.1767,-264.8076"/>
<text text-anchor="middle" x="464.528" y="-245.1796" font-family="Helvetica Neue" font-size="8.00" fill="#0000ff">Current Request List</text>
</g>
<!-- Begin&#45;&gt;CurrentRequestList -->
<g id="edge1" class="edge">
<title>Begin&#45;&gt;CurrentRequestList</title>
<path fill="none" stroke="#000000" d="M428.1857,-305.9197C427.1903,-295.9911 427.4054,-283.7028 432.112,-273.8076 432.9142,-272.121 433.8783,-270.5025 434.964,-268.9553"/>
<polygon fill="#000000" stroke="#000000" points="436.346,-270.029 438.0942,-265.0283 433.6091,-267.8474 436.346,-270.029"/>
<text text-anchor="start" x="432.528" y="-286.4955" font-family="Helvetica Neue" font-size="8.00" fill="#ff0000">ask to place</text>
<text text-anchor="start" x="432.528" y="-276.9516" font-family="Helvetica Neue" font-size="8.00" fill="#ff0000">a request</text>
</g>
<!-- Canceled -->
<g id="node2" class="node">
<title>Canceled</title>
<ellipse fill="#ff0000" stroke="#000000" cx="497.528" cy="-323.8955" rx="18" ry="18"/>
<ellipse fill="none" stroke="#000000" cx="497.528" cy="-323.8955" rx="22" ry="22"/>
</g>
<!-- OK -->
<g id="node3" class="node">
<title>OK</title>
<ellipse fill="#000000" stroke="#000000" cx="723.528" cy="-323.8955" rx="18" ry="18"/>
<ellipse fill="none" stroke="#000000" cx="723.528" cy="-323.8955" rx="22" ry="22"/>
</g>
<!-- CurrentRequestList&#45;&gt;Canceled -->
<g id="edge2" class="edge">
<title>CurrentRequestList&#45;&gt;Canceled</title>
<path fill="none" stroke="#000000" d="M472.2403,-264.8235C476.5956,-274.9974 482.1042,-287.8655 486.8674,-298.9924"/>
<polygon fill="#000000" stroke="#000000" points="485.2811,-299.7337 488.8576,-303.6416 488.4987,-298.3563 485.2811,-299.7337"/>
<text text-anchor="start" x="484.528" y="-286.4955" font-family="Helvetica Neue" font-size="8.00" fill="#ff0000">cancel entire</text>
<text text-anchor="start" x="484.528" y="-276.9516" font-family="Helvetica Neue" font-size="8.00" fill="#ff0000">request</text>
</g>
<!-- CurrentRequestList&#45;&gt;CurrentRequestList -->
<g id="edge4" class="edge">
<title>CurrentRequestList&#45;&gt;CurrentRequestList</title>
<path fill="none" stroke="#000000" d="M509.4227,-253.4089C519.7591,-252.8401 527.352,-250.6396 527.352,-246.8076 527.352,-243.6342 522.1449,-241.5798 514.4846,-240.6442"/>
<polygon fill="#000000" stroke="#000000" points="514.5549,-238.8939 509.4227,-240.2063 514.2532,-242.3808 514.5549,-238.8939"/>
<text text-anchor="start" x="527.352" y="-249.9516" font-family="Helvetica Neue" font-size="8.00" fill="#ff0000">delete chemical</text>
<text text-anchor="start" x="527.352" y="-240.4076" font-family="Helvetica Neue" font-size="8.00" fill="#ff0000">from list</text>
</g>
<!-- ConfirmRequestIsAccepted -->
<g id="node5" class="node">
<title>ConfirmRequestIsAccepted</title>
<polygon fill="none" stroke="#000000" points="784.3805,-264.8076 662.6755,-264.8076 662.6755,-228.8076 784.3805,-228.8076 784.3805,-264.8076"/>
<text text-anchor="middle" x="723.528" y="-245.1796" font-family="Helvetica Neue" font-size="8.00" fill="#0000ff">Confirm Request Is Accepted</text>
</g>
<!-- CurrentRequestList&#45;&gt;ConfirmRequestIsAccepted -->
<g id="edge3" class="edge">
<title>CurrentRequestList&#45;&gt;ConfirmRequestIsAccepted</title>
<path fill="none" stroke="#000000" d="M509.3467,-246.8076C550.2769,-246.8076 611.3047,-246.8076 657.7583,-246.8076"/>
<polygon fill="#000000" stroke="#000000" points="657.7766,-248.5577 662.7765,-246.8076 657.7765,-245.0577 657.7766,-248.5577"/>
<text text-anchor="start" x="555.326" y="-262.4955" font-family="Helvetica Neue" font-size="8.00" fill="#ff0000">submit request</text>
<text text-anchor="start" x="555.326" y="-252.9516" font-family="Helvetica Neue" font-size="8.00" fill="#ff0000">for &gt; 0 chemicals</text>
</g>
<!-- EnterChemicalToRequest -->
<g id="node7" class="node">
<title>EnterChemicalToRequest</title>
<polygon fill="none" stroke="#000000" points="113.084,-191.7197 -.028,-191.7197 -.028,-155.7197 113.084,-155.7197 113.084,-191.7197"/>
<text text-anchor="middle" x="56.528" y="-172.0917" font-family="Helvetica Neue" font-size="8.00" fill="#0000ff">Enter Chemical To Request</text>
</g>
<!-- CurrentRequestList&#45;&gt;EnterChemicalToRequest -->
<g id="edge5" class="edge">
<title>CurrentRequestList&#45;&gt;EnterChemicalToRequest</title>
<path fill="none" stroke="#000000" d="M419.5945,-245.5912C342.1788,-243.0857 186.9781,-236.1504 135.216,-219.8076 117.4295,-214.1919 99.3487,-203.9841 85.0114,-194.6001"/>
<polygon fill="#000000" stroke="#000000" points="85.8183,-193.0349 80.6865,-191.7202 83.8784,-195.9481 85.8183,-193.0349"/>
<text text-anchor="start" x="135.528" y="-213.4076" font-family="Helvetica Neue" font-size="8.00" fill="#ff0000">request another</text>
<text text-anchor="start" x="135.528" y="-203.8637" font-family="Helvetica Neue" font-size="8.00" fill="#ff0000">chemical</text>
</g>
<!-- ConfirmRequestIsAccepted&#45;&gt;OK -->
<g id="edge6" class="edge">
<title>ConfirmRequestIsAccepted&#45;&gt;OK</title>
<path fill="none" stroke="#000000" d="M723.528,-264.9072C723.528,-274.3317 723.528,-286.0513 723.528,-296.5551"/>
<polygon fill="#000000" stroke="#000000" points="721.7781,-296.5985 723.528,-301.5985 725.2781,-296.5985 721.7781,-296.5985"/>
<text text-anchor="start" x="723.528" y="-286.4955" font-family="Helvetica Neue" font-size="8.00" fill="#ff0000">OK; exit</text>
<text text-anchor="start" x="723.528" y="-276.9516" font-family="Helvetica Neue" font-size="8.00" fill="#ff0000">request function</text>
</g>
<!-- DisplayErrorMessage -->
<g id="node6" class="node">
<title>DisplayErrorMessage</title>
<polygon fill="none" stroke="#000000" points="428.977,-191.7197 332.079,-191.7197 332.079,-155.7197 428.977,-155.7197 428.977,-191.7197"/>
<text text-anchor="middle" x="380.528" y="-172.0917" font-family="Helvetica Neue" font-size="8.00" fill="#0000ff">Display Error Message</text>
</g>
<!-- DisplayErrorMessage&#45;&gt;EnterChemicalToRequest -->
<g id="edge10" class="edge">
<title>DisplayErrorMessage&#45;&gt;EnterChemicalToRequest</title>
<path fill="none" stroke="#000000" d="M332.181,-190.7532C308.6395,-198.1043 279.7207,-205.7623 253.052,-209.0356 205.964,-214.8152 153.0575,-204.3225 114.0107,-193.3038"/>
<polygon fill="#000000" stroke="#000000" points="114.1257,-191.5162 108.8369,-191.8179 113.1596,-194.8802 114.1257,-191.5162"/>
<text text-anchor="middle" x="224.528" y="-208.6356" font-family="Helvetica Neue" font-size="8.00" fill="#ff0000">OK</text>
</g>
<!-- EnterChemicalToRequest&#45;&gt;DisplayErrorMessage -->
<g id="edge8" class="edge">
<title>EnterChemicalToRequest&#45;&gt;DisplayErrorMessage</title>
<path fill="none" stroke="#000000" d="M108.8369,-191.8179C148.295,-203.3475 203.8499,-215.0747 253.052,-209.0356 277.8456,-205.9925 304.5839,-199.1595 327.1381,-192.3068"/>
<polygon fill="#000000" stroke="#000000" points="327.9179,-193.8978 332.181,-190.7532 326.8874,-190.5529 327.9179,-193.8978"/>
<text text-anchor="start" x="196.004" y="-208.6356" font-family="Helvetica Neue" font-size="8.00" fill="#ff0000">invalid chemical</text>
</g>
<!-- ListOfVendorsForChemical -->
<g id="node8" class="node">
<title>ListOfVendorsForChemical</title>
<polygon fill="none" stroke="#000000" points="313.6446,-191.7197 193.4114,-191.7197 193.4114,-155.7197 313.6446,-155.7197 313.6446,-191.7197"/>
<text text-anchor="middle" x="253.528" y="-172.0917" font-family="Helvetica Neue" font-size="8.00" fill="#0000ff">List Of Vendors For Chemical</text>
</g>
<!-- EnterChemicalToRequest&#45;&gt;ListOfVendorsForChemical -->
<g id="edge7" class="edge">
<title>EnterChemicalToRequest&#45;&gt;ListOfVendorsForChemical</title>
<path fill="none" stroke="#000000" d="M104.4356,-155.7172C110.4816,-154.0376 116.6403,-152.6031 122.61,-151.6318 149.3938,-147.2741 156.8474,-147.4933 183.666,-151.6318 188.2822,-152.3442 193.0114,-153.3066 197.7263,-154.4327"/>
<polygon fill="#000000" stroke="#000000" points="197.5551,-156.194 202.8308,-155.7148 198.4077,-152.7994 197.5551,-156.194"/>
<text text-anchor="start" x="122.61" y="-164.3197" font-family="Helvetica Neue" font-size="8.00" fill="#ff0000">request chemical</text>
<text text-anchor="start" x="122.61" y="-154.7758" font-family="Helvetica Neue" font-size="8.00" fill="#ff0000">from vendor</text>
</g>
<!-- ListOfStockroomContainers -->
<g id="node9" class="node">
<title>ListOfStockroomContainers</title>
<polygon fill="none" stroke="#000000" points="525.48,-109.0879 403.576,-109.0879 403.576,-73.0879 525.48,-73.0879 525.48,-109.0879"/>
<text text-anchor="middle" x="464.528" y="-89.4599" font-family="Helvetica Neue" font-size="8.00" fill="#0000ff">List Of Stockroom Containers</text>
</g>
<!-- EnterChemicalToRequest&#45;&gt;ListOfStockroomContainers -->
<g id="edge9" class="edge">
<title>EnterChemicalToRequest&#45;&gt;ListOfStockroomContainers</title>
<path fill="none" stroke="#000000" d="M113.1548,-156.3754C154.4857,-144.2376 212.0408,-128.4094 263.472,-118.0879 308.085,-109.1347 358.8773,-102.3415 398.2485,-97.8085"/>
<polygon fill="#000000" stroke="#000000" points="398.7114,-99.5171 403.4808,-97.2116 398.3147,-96.0397 398.7114,-99.5171"/>
<text text-anchor="start" x="263.528" y="-135.5478" font-family="Helvetica Neue" font-size="8.00" fill="#ff0000">request chemical</text>
<text text-anchor="start" x="263.528" y="-126.0038" font-family="Helvetica Neue" font-size="8.00" fill="#ff0000">from stockroom</text>
</g>
<!-- ListOfVendorsForChemical&#45;&gt;EnterChemicalToRequest -->
<g id="edge11" class="edge">
<title>ListOfVendorsForChemical&#45;&gt;EnterChemicalToRequest</title>
<path fill="none" stroke="#000000" d="M193.089,-173.7197C169.3565,-173.7197 142.1405,-173.7197 118.282,-173.7197"/>
<polygon fill="#000000" stroke="#000000" points="118.2443,-171.9698 113.2443,-173.7197 118.2442,-175.4698 118.2443,-171.9698"/>
<text text-anchor="start" x="121.414" y="-189.4076" font-family="Helvetica Neue" font-size="8.00" fill="#ff0000">request a</text>
<text text-anchor="start" x="121.414" y="-179.8637" font-family="Helvetica Neue" font-size="8.00" fill="#ff0000">different chemical</text>
</g>
<!-- ListOfStockroomContainers&#45;&gt;CurrentRequestList -->
<g id="edge12" class="edge">
<title>ListOfStockroomContainers&#45;&gt;CurrentRequestList</title>
<path fill="none" stroke="#000000" d="M464.528,-109.14C464.528,-137.4326 464.528,-192.208 464.528,-223.4615"/>
<polygon fill="#000000" stroke="#000000" points="462.7781,-223.6398 464.528,-228.6398 466.2781,-223.6399 462.7781,-223.6398"/>
<text text-anchor="start" x="464.528" y="-176.8637" font-family="Helvetica Neue" font-size="8.00" fill="#ff0000">cancel addition</text>
<text text-anchor="start" x="464.528" y="-167.3197" font-family="Helvetica Neue" font-size="8.00" fill="#ff0000">of new chemical</text>
</g>
<!-- ListOfStockroomContainers&#45;&gt;CurrentRequestList -->
<g id="edge13" class="edge">
<title>ListOfStockroomContainers&#45;&gt;CurrentRequestList</title>
<path fill="none" stroke="#000000" d="M489.6399,-109.2849C503.3604,-120.8437 519.0451,-137.1097 526.528,-155.7197 532.497,-170.5646 533.084,-177.1246 526.528,-191.7197 520.5377,-205.0555 509.5466,-216.4783 498.4636,-225.4079"/>
<polygon fill="#000000" stroke="#000000" points="497.255,-224.131 494.3853,-228.5838 499.4055,-226.8924 497.255,-224.131"/>
<text text-anchor="start" x="531.528" y="-176.8637" font-family="Helvetica Neue" font-size="8.00" fill="#ff0000">select container</text>
<text text-anchor="start" x="531.528" y="-167.3197" font-family="Helvetica Neue" font-size="8.00" fill="#ff0000">add and to list</text>
</g>
<!-- ListOfStockroomContainers&#45;&gt;ListOfVendorsForChemical -->
<g id="edge14" class="edge">
<title>ListOfStockroomContainers&#45;&gt;ListOfVendorsForChemical</title>
<path fill="none" stroke="#000000" d="M418.2181,-109.2238C384.6387,-122.3741 339.232,-140.1563 304.6008,-153.7186"/>
<polygon fill="#000000" stroke="#000000" points="303.5897,-152.2351 299.5721,-155.6879 304.866,-155.4941 303.5897,-152.2351"/>
<text text-anchor="start" x="390.528" y="-140.3197" font-family="Helvetica Neue" font-size="8.00" fill="#ff0000">request</text>
<text text-anchor="start" x="390.528" y="-130.7758" font-family="Helvetica Neue" font-size="8.00" fill="#ff0000">chemical</text>
<text text-anchor="start" x="390.528" y="-121.2318" font-family="Helvetica Neue" font-size="8.00" fill="#ff0000">from vendor</text>
</g>
<!-- ContainerHistory -->
<g id="node10" class="node">
<title>ContainerHistory</title>
<polygon fill="none" stroke="#000000" points="503.8969,-36 425.1591,-36 425.1591,0 503.8969,0 503.8969,-36"/>
<text text-anchor="middle" x="464.528" y="-16.372" font-family="Helvetica Neue" font-size="8.00" fill="#0000ff">Container History</text>
</g>
<!-- ListOfStockroomContainers&#45;&gt;ContainerHistory -->
<g id="edge15" class="edge">
<title>ListOfStockroomContainers&#45;&gt;ContainerHistory</title>
<path fill="none" stroke="#000000" d="M431.5878,-72.8624C428.9668,-70.2437 426.6768,-67.323 424.968,-64.0879 421.0058,-56.5865 421.0058,-52.5014 424.968,-45 425.8758,-43.2813 426.9476,-41.6514 428.146,-40.1084"/>
<polygon fill="#000000" stroke="#000000" points="429.5808,-41.128 431.5878,-36.2255 426.9616,-38.8063 429.5808,-41.128"/>
<text text-anchor="start" x="425.528" y="-57.6879" font-family="Helvetica Neue" font-size="8.00" fill="#ff0000">ask to see</text>
<text text-anchor="start" x="425.528" y="-48.1439" font-family="Helvetica Neue" font-size="8.00" fill="#ff0000">container history</text>
</g>
<!-- ContainerHistory&#45;&gt;ListOfStockroomContainers -->
<g id="edge16" class="edge">
<title>ContainerHistory&#45;&gt;ListOfStockroomContainers</title>
<path fill="none" stroke="#000000" d="M480.201,-36.0091C481.9713,-38.8609 483.5042,-41.8979 484.528,-45 487.1868,-53.0561 487.1868,-56.0318 484.528,-64.0879 484.0161,-65.639 483.3769,-67.1737 482.6444,-68.6772"/>
<polygon fill="#000000" stroke="#000000" points="481.0978,-67.8578 480.201,-73.0788 484.1579,-69.5566 481.0978,-67.8578"/>
<text text-anchor="start" x="486.528" y="-52.9159" font-family="Helvetica Neue" font-size="8.00" fill="#ff0000">return</text>
</g>
</g>
</svg>
