<?xml version="1.0" encoding="UTF-8" standalone="no"?>
<!DOCTYPE svg PUBLIC "-//W3C//DTD SVG 1.1//EN"
 "http://www.w3.org/Graphics/SVG/1.1/DTD/svg11.dtd">
<!-- Generated by graphviz version 2.40.1 (20161225.0304)
 -->
<!-- Title: std Pages: 1 -->
<svg width="438pt" height="351pt"
 viewBox="0.00 0.00 438.00 351.27" xmlns="http://www.w3.org/2000/svg" xmlns:xlink="http://www.w3.org/1999/xlink">
<g id="graph0" class="graph" transform="scale(1 1) rotate(0) translate(4 347.2674)">
<title>std</title>
<polygon fill="#ffffff" stroke="transparent" points="-4,4 -4,-347.2674 434,-347.2674 434,4 -4,4"/>
<!-- User -->
<g id="node1" class="node">
<title>User</title>
<polygon fill="none" stroke="#000000" stroke-width="2" points="54,-223 0,-223 0,-187 54,-187 54,-223"/>
<text text-anchor="middle" x="27" y="-203.4" font-family="Fira Code" font-size="8.00" fill="#000000">User</text>
</g>
<!-- ProcuringCustomer -->
<g id="node2" class="node">
<title>ProcuringCustomer</title>
<polygon fill="none" stroke="#000000" points="149.3003,-277 89.8997,-277 89.8997,-241 149.3003,-241 149.3003,-277"/>
<text text-anchor="middle" x="119.6" y="-262.2" font-family="Fira Code" font-size="8.00" fill="#0000ff">Procuring</text>
<text text-anchor="middle" x="119.6" y="-252.6" font-family="Fira Code" font-size="8.00" fill="#0000ff">Customer</text>
</g>
<!-- User&#45;&gt;ProcuringCustomer -->
<g id="edge10" class="edge">
<title>User&#45;&gt;ProcuringCustomer</title>
<path fill="none" stroke="#000000" d="M54.2822,-220.9097C64.0851,-226.6263 75.2646,-233.1457 85.5701,-239.1554"/>
<polygon fill="#000000" stroke="#000000" points="84.7258,-240.6888 89.9267,-241.6959 86.489,-237.6653 84.7258,-240.6888"/>
</g>
<!-- BusinessAnalyst -->
<g id="node4" class="node">
<title>BusinessAnalyst</title>
<polygon fill="none" stroke="#000000" points="335.0015,-223 280.1985,-223 280.1985,-187 335.0015,-187 335.0015,-223"/>
<text text-anchor="middle" x="307.6" y="-208.2" font-family="Fira Code" font-size="8.00" fill="#0000ff">Business</text>
<text text-anchor="middle" x="307.6" y="-198.6" font-family="Fira Code" font-size="8.00" fill="#0000ff">Analyst</text>
</g>
<!-- User&#45;&gt;BusinessAnalyst -->
<g id="edge7" class="edge">
<title>User&#45;&gt;BusinessAnalyst</title>
<path fill="none" stroke="#000000" d="M54.124,-190.5226C64.9629,-185.5058 77.7605,-180.5122 90,-178 157.2208,-164.2024 177.1713,-164.2409 244.4,-178 254.9477,-180.1587 265.9118,-184.1501 275.6882,-188.4141"/>
<polygon fill="#000000" stroke="#000000" points="275.1069,-190.0713 280.3852,-190.5223 276.5402,-186.8782 275.1069,-190.0713"/>
</g>
<!-- Developer -->
<g id="node5" class="node">
<title>Developer</title>
<polygon fill="none" stroke="#000000" stroke-width="2" points="430.1003,-277 370.6997,-277 370.6997,-241 430.1003,-241 430.1003,-277"/>
<text text-anchor="middle" x="400.4" y="-257.4" font-family="Fira Code" font-size="8.00" fill="#000000">Developer</text>
</g>
<!-- User&#45;&gt;Developer -->
<g id="edge1" class="edge">
<title>User&#45;&gt;Developer</title>
<path fill="none" stroke="#000000" stroke-width="2" d="M31.2197,-223.2806C38.4045,-250.0031 55.6923,-299.2368 90,-324 124.7889,-349.1104 142.4441,-336.4321 185.2,-340 211.42,-342.188 218.6576,-345.4408 244.4,-340 287.3856,-330.9147 295.9848,-320.5836 334.8,-300 346.2203,-293.9439 358.3261,-286.646 368.9877,-279.8961"/>
<polygon fill="#000000" stroke="#000000" stroke-width="2" points="370.1879,-281.2064 373.4623,-277.0421 368.3057,-278.2555 370.1879,-281.2064"/>
</g>
<!-- ProductChampion -->
<g id="node6" class="node">
<title>ProductChampion</title>
<polygon fill="none" stroke="#000000" points="242.2015,-331 187.3985,-331 187.3985,-295 242.2015,-295 242.2015,-331"/>
<text text-anchor="middle" x="214.8" y="-316.2" font-family="Fira Code" font-size="8.00" fill="#0000ff">Product</text>
<text text-anchor="middle" x="214.8" y="-306.6" font-family="Fira Code" font-size="8.00" fill="#0000ff">Champion</text>
</g>
<!-- User&#45;&gt;ProductChampion -->
<g id="edge2" class="edge">
<title>User&#45;&gt;ProductChampion</title>
<path fill="none" stroke="#000000" d="M32.9577,-223.1563C41.5543,-246.1404 59.8088,-284.9145 90,-303 117.795,-319.6501 155.534,-320.3008 182.2131,-317.939"/>
<polygon fill="#000000" stroke="#000000" points="182.5901,-319.6605 187.3952,-317.4303 182.2481,-316.1772 182.5901,-319.6605"/>
</g>
<!-- Trainer -->
<g id="node7" class="node">
<title>Trainer</title>
<polygon fill="none" stroke="#000000" points="241.8,-277 187.8,-277 187.8,-241 241.8,-241 241.8,-277"/>
<text text-anchor="middle" x="214.8" y="-257.4" font-family="Fira Code" font-size="8.00" fill="#0000ff">Trainer</text>
</g>
<!-- User&#45;&gt;Trainer -->
<g id="edge5" class="edge">
<title>User&#45;&gt;Trainer</title>
<path fill="none" stroke="#000000" d="M35.0343,-223.177C44.831,-242.8061 63.4339,-273.0069 90,-286 119.6202,-300.4868 156.9514,-289.0243 183.0336,-276.8763"/>
<polygon fill="#000000" stroke="#000000" points="184.0165,-278.3459 187.7684,-274.6061 182.5033,-275.1899 184.0165,-278.3459"/>
</g>
<!-- FocusGroup -->
<g id="node8" class="node">
<title>FocusGroup</title>
<polygon fill="none" stroke="#000000" points="146.6,-223 92.6,-223 92.6,-187 146.6,-187 146.6,-223"/>
<text text-anchor="middle" x="119.6" y="-208.2" font-family="Fira Code" font-size="8.00" fill="#0000ff">Focus</text>
<text text-anchor="middle" x="119.6" y="-198.6" font-family="Fira Code" font-size="8.00" fill="#0000ff">Group</text>
</g>
<!-- User&#45;&gt;FocusGroup -->
<g id="edge8" class="edge">
<title>User&#45;&gt;FocusGroup</title>
<path fill="none" stroke="#000000" d="M54.2822,-205C64.6436,-205 76.543,-205 87.3226,-205"/>
<polygon fill="#000000" stroke="#000000" points="87.5128,-206.7501 92.5128,-205 87.5128,-203.2501 87.5128,-206.7501"/>
</g>
<!-- HelpDesk -->
<g id="node9" class="node">
<title>HelpDesk</title>
<polygon fill="none" stroke="#000000" points="146.6,-131 92.6,-131 92.6,-95 146.6,-95 146.6,-131"/>
<text text-anchor="middle" x="119.6" y="-116.2" font-family="Fira Code" font-size="8.00" fill="#0000ff">Help</text>
<text text-anchor="middle" x="119.6" y="-106.6" font-family="Fira Code" font-size="8.00" fill="#0000ff">Desk</text>
</g>
<!-- User&#45;&gt;HelpDesk -->
<g id="edge14" class="edge">
<title>User&#45;&gt;HelpDesk</title>
<path fill="none" stroke="#000000" d="M45.2948,-186.8238C60.2605,-171.955 81.4794,-150.8736 97.4132,-135.0431"/>
<polygon fill="#000000" stroke="#000000" points="99.0296,-135.904 101.3432,-131.1385 96.5628,-133.4211 99.0296,-135.904"/>
</g>
<!-- UserManager -->
<g id="node10" class="node">
<title>UserManager</title>
<polygon fill="none" stroke="#000000" points="146.6,-77 92.6,-77 92.6,-41 146.6,-41 146.6,-77"/>
<text text-anchor="middle" x="119.6" y="-62.2" font-family="Fira Code" font-size="8.00" fill="#0000ff">User</text>
<text text-anchor="middle" x="119.6" y="-52.6" font-family="Fira Code" font-size="8.00" fill="#0000ff">Manager</text>
</g>
<!-- User&#45;&gt;UserManager -->
<g id="edge16" class="edge">
<title>User&#45;&gt;UserManager</title>
<path fill="none" stroke="#000000" d="M34.2302,-186.9287C44.4753,-162.5741 64.8042,-118.5248 90,-86 91.3418,-84.2679 92.8015,-82.5533 94.3299,-80.878"/>
<polygon fill="#000000" stroke="#000000" points="95.8014,-81.8718 97.9974,-77.0509 93.2744,-79.4502 95.8014,-81.8718"/>
</g>
<!-- Sales -->
<g id="node11" class="node">
<title>Sales</title>
<polygon fill="none" stroke="#000000" points="241.8,-36 187.8,-36 187.8,0 241.8,0 241.8,-36"/>
<text text-anchor="middle" x="214.8" y="-16.4" font-family="Fira Code" font-size="8.00" fill="#0000ff">Sales</text>
</g>
<!-- User&#45;&gt;Sales -->
<g id="edge18" class="edge">
<title>User&#45;&gt;Sales</title>
<path fill="none" stroke="#000000" d="M31.0483,-186.926C40.4359,-146.7108 64.8163,-51.8144 90,-32 116.0512,-11.5031 155.1774,-10.4142 182.6597,-12.9102"/>
<polygon fill="#000000" stroke="#000000" points="182.4994,-14.6529 187.65,-13.4141 182.8511,-11.1706 182.4994,-14.6529"/>
</g>
<!-- Marketing -->
<g id="node3" class="node">
<title>Marketing</title>
<polygon fill="none" stroke="#000000" points="244.5003,-223 185.0997,-223 185.0997,-187 244.5003,-187 244.5003,-223"/>
<text text-anchor="middle" x="214.8" y="-203.4" font-family="Fira Code" font-size="8.00" fill="#0000ff">Marketing</text>
</g>
<!-- ProcuringCustomer&#45;&gt;Marketing -->
<g id="edge11" class="edge">
<title>ProcuringCustomer&#45;&gt;Marketing</title>
<path fill="none" stroke="#000000" d="M149.2,-242.2101C159.0453,-236.6256 170.0954,-230.3576 180.2796,-224.5809"/>
<polygon fill="#000000" stroke="#000000" points="181.4047,-225.9547 184.8904,-221.9655 179.6779,-222.9103 181.4047,-225.9547"/>
</g>
<!-- Marketing&#45;&gt;BusinessAnalyst -->
<g id="edge12" class="edge">
<title>Marketing&#45;&gt;BusinessAnalyst</title>
<path fill="none" stroke="#000000" d="M244.4176,-205C254.1744,-205 265.0754,-205 275.0392,-205"/>
<polygon fill="#000000" stroke="#000000" points="275.1532,-206.7501 280.1532,-205 275.1532,-203.2501 275.1532,-206.7501"/>
</g>
<!-- BusinessAnalyst&#45;&gt;Developer -->
<g id="edge13" class="edge">
<title>BusinessAnalyst&#45;&gt;Developer</title>
<path fill="none" stroke="#000000" d="M334.9411,-220.9097C344.7652,-226.6263 355.9689,-233.1457 366.2966,-239.1554"/>
<polygon fill="#000000" stroke="#000000" points="365.4608,-240.6937 370.6626,-241.6959 367.2211,-237.6686 365.4608,-240.6937"/>
</g>
<!-- ProductChampion&#45;&gt;BusinessAnalyst -->
<g id="edge4" class="edge">
<title>ProductChampion&#45;&gt;BusinessAnalyst</title>
<path fill="none" stroke="#000000" d="M235.6115,-294.8423C238.6408,-291.965 241.6591,-288.9602 244.4,-286 261.8274,-267.1779 279.6193,-243.9409 291.8664,-227.1892"/>
<polygon fill="#000000" stroke="#000000" points="293.3317,-228.1497 294.8571,-223.0766 290.501,-226.0913 293.3317,-228.1497"/>
</g>
<!-- ProductChampion&#45;&gt;Developer -->
<g id="edge3" class="edge">
<title>ProductChampion&#45;&gt;Developer</title>
<path fill="none" stroke="#000000" d="M242.1859,-305.0321C274.959,-295.4968 329.8786,-279.5181 365.6211,-269.1188"/>
<polygon fill="#000000" stroke="#000000" points="366.4386,-270.7037 370.7506,-267.6264 365.4607,-267.343 366.4386,-270.7037"/>
</g>
<!-- Trainer&#45;&gt;BusinessAnalyst -->
<g id="edge6" class="edge">
<title>Trainer&#45;&gt;BusinessAnalyst</title>
<path fill="none" stroke="#000000" d="M242.1411,-243.0903C252.6201,-236.9926 264.6688,-229.9815 275.5498,-223.6499"/>
<polygon fill="#000000" stroke="#000000" points="276.6922,-225.0099 280.1336,-220.9826 274.9318,-221.9848 276.6922,-225.0099"/>
</g>
<!-- FocusGroup&#45;&gt;Marketing -->
<g id="edge9" class="edge">
<title>FocusGroup&#45;&gt;Marketing</title>
<path fill="none" stroke="#000000" d="M146.6259,-205C156.9244,-205 168.814,-205 179.7514,-205"/>
<polygon fill="#000000" stroke="#000000" points="180.0331,-206.7501 185.0331,-205 180.033,-203.2501 180.0331,-206.7501"/>
</g>
<!-- HelpDesk&#45;&gt;BusinessAnalyst -->
<g id="edge15" class="edge">
<title>HelpDesk&#45;&gt;BusinessAnalyst</title>
<path fill="none" stroke="#000000" d="M146.8682,-115.9581C173.1837,-119.7147 213.4744,-127.8952 244.4,-145 261.7972,-154.6223 277.9863,-170.1752 289.6237,-183.035"/>
<polygon fill="#000000" stroke="#000000" points="288.4559,-184.3552 293.0855,-186.9299 291.0719,-182.0301 288.4559,-184.3552"/>
</g>
<!-- UserManager&#45;&gt;BusinessAnalyst -->
<g id="edge17" class="edge">
<title>UserManager&#45;&gt;BusinessAnalyst</title>
<path fill="none" stroke="#000000" d="M146.8511,-67.7121C173.7065,-77.2498 214.8901,-94.5155 244.4,-119 265.8272,-136.7782 283.8748,-163.3161 295.1278,-182.205"/>
<polygon fill="#000000" stroke="#000000" points="293.802,-183.4038 297.8403,-186.8324 296.8215,-181.6339 293.802,-183.4038"/>
</g>
<!-- ProductManager -->
<g id="node12" class="node">
<title>ProductManager</title>
<polygon fill="none" stroke="#000000" points="334.6,-103 280.6,-103 280.6,-67 334.6,-67 334.6,-103"/>
<text text-anchor="middle" x="307.6" y="-88.2" font-family="Fira Code" font-size="8.00" fill="#0000ff">Product</text>
<text text-anchor="middle" x="307.6" y="-78.6" font-family="Fira Code" font-size="8.00" fill="#0000ff">Manager</text>
</g>
<!-- Sales&#45;&gt;ProductManager -->
<g id="edge19" class="edge">
<title>Sales&#45;&gt;ProductManager</title>
<path fill="none" stroke="#000000" d="M240.158,-36.308C252.0188,-44.8713 266.2068,-55.1148 278.5027,-63.9922"/>
<polygon fill="#000000" stroke="#000000" points="277.5157,-65.4381 282.594,-66.9461 279.5645,-62.6004 277.5157,-65.4381"/>
</g>
<!-- ProductManager&#45;&gt;Developer -->
<g id="edge20" class="edge">
<title>ProductManager&#45;&gt;Developer</title>
<path fill="none" stroke="#000000" d="M317.3558,-103.2922C334.4575,-135.3579 369.7932,-201.6122 388.3763,-236.4556"/>
<polygon fill="#000000" stroke="#000000" points="386.8778,-237.3647 390.7749,-240.9529 389.966,-235.7176 386.8778,-237.3647"/>
</g>
</g>
</svg>
