<?xml version="1.0" encoding="UTF-8" standalone="no"?>
<!DOCTYPE svg PUBLIC "-//W3C//DTD SVG 1.1//EN"
 "http://www.w3.org/Graphics/SVG/1.1/DTD/svg11.dtd">
<!-- Generated by graphviz version 2.40.1 (20161225.0304)
 -->
<!-- Title: std Pages: 1 -->
<svg width="539pt" height="206pt"
 viewBox="0.00 0.00 539.20 206.40" xmlns="http://www.w3.org/2000/svg" xmlns:xlink="http://www.w3.org/1999/xlink">
<g id="graph0" class="graph" transform="scale(1 1) rotate(0) translate(4 202.4)">
<title>std</title>
<polygon fill="#ffffff" stroke="transparent" points="-4,4 -4,-202.4 535.2,-202.4 535.2,4 -4,4"/>
<!-- ProjectManager -->
<g id="node1" class="node">
<title>ProjectManager</title>
<polygon fill="#303030" stroke="#000000" points="83.3002,-130.4 -.1002,-130.4 -.1002,-94.4 83.3002,-94.4 83.3002,-130.4"/>
<text text-anchor="middle" x="41.6" y="-110.8" font-family="Fira Code" font-size="8.00" fill="#ffffff">ProjectManager</text>
</g>
<!-- Analyst1 -->
<g id="node2" class="node">
<title>Analyst1</title>
<polygon fill="#303030" stroke="#000000" points="173.8015,-191.4 118.9985,-191.4 118.9985,-155.4 173.8015,-155.4 173.8015,-191.4"/>
<text text-anchor="middle" x="146.4" y="-171.8" font-family="Fira Code" font-size="8.00" fill="#ffffff">Analyst1</text>
</g>
<!-- ProjectManager&#45;&#45;Analyst1 -->
<g id="edge1" class="edge">
<title>ProjectManager&#45;&#45;Analyst1</title>
<path fill="none" stroke="#000000" d="M72.7597,-130.5368C87.4818,-139.106 104.8964,-149.2424 119.0938,-157.5061"/>
</g>
<!-- Analyst2 -->
<g id="node5" class="node">
<title>Analyst2</title>
<polygon fill="#303030" stroke="#000000" points="173.8015,-130.4 118.9985,-130.4 118.9985,-94.4 173.8015,-94.4 173.8015,-130.4"/>
<text text-anchor="middle" x="146.4" y="-110.8" font-family="Fira Code" font-size="8.00" fill="#ffffff">Analyst2</text>
</g>
<!-- ProjectManager&#45;&#45;Analyst2 -->
<g id="edge5" class="edge">
<title>ProjectManager&#45;&#45;Analyst2</title>
<path fill="none" stroke="#000000" d="M83.3209,-112.4C95.3078,-112.4 108.0734,-112.4 118.9624,-112.4"/>
</g>
<!-- Analyst3 -->
<g id="node8" class="node">
<title>Analyst3</title>
<polygon fill="#303030" stroke="#000000" points="173.8015,-63.4 118.9985,-63.4 118.9985,-27.4 173.8015,-27.4 173.8015,-63.4"/>
<text text-anchor="middle" x="146.4" y="-43.8" font-family="Fira Code" font-size="8.00" fill="#ffffff">Analyst3</text>
</g>
<!-- ProjectManager&#45;&#45;Analyst3 -->
<g id="edge10" class="edge">
<title>ProjectManager&#45;&#45;Analyst3</title>
<path fill="none" stroke="#000000" d="M69.9604,-94.2688C85.2364,-84.5026 103.9925,-72.5116 119.1023,-62.8517"/>
</g>
<!-- ChemistProductChampion -->
<g id="node3" class="node">
<title>ChemistProductChampion</title>
<polygon fill="#303030" stroke="#000000" points="304.7002,-198.4 212.0998,-198.4 212.0998,-162.4 304.7002,-162.4 304.7002,-198.4"/>
<text text-anchor="middle" x="258.4" y="-183.5999" font-family="Fira Code" font-size="8.00" fill="#ffffff">Chemist</text>
<text text-anchor="middle" x="258.4" y="-174" font-family="Fira Code" font-size="8.00" fill="#ffffff">Product Champion</text>
</g>
<!-- Analyst1&#45;&#45;ChemistProductChampion -->
<g id="edge2" class="edge">
<title>Analyst1&#45;&#45;ChemistProductChampion</title>
<path fill="none" stroke="#000000" d="M173.7983,-175.1124C185.3257,-175.8328 199.0633,-176.6914 212.0811,-177.505"/>
</g>
<!-- ChemistBackupTeam -->
<g id="node4" class="node">
<title>ChemistBackupTeam</title>
<polygon fill="#303030" stroke="#000000" points="426.3003,-198.4 357.6997,-198.4 357.6997,-162.4 426.3003,-162.4 426.3003,-198.4"/>
<text text-anchor="middle" x="392" y="-183.5999" font-family="Fira Code" font-size="8.00" fill="#ffffff">Chemist</text>
<text text-anchor="middle" x="392" y="-174" font-family="Fira Code" font-size="8.00" fill="#ffffff">Backup Team</text>
</g>
<!-- ChemistProductChampion&#45;&#45;ChemistBackupTeam -->
<g id="edge3" class="edge">
<title>ChemistProductChampion&#45;&#45;ChemistBackupTeam</title>
<path fill="none" stroke="#000000" d="M304.7519,-180.4C322.0858,-180.4 341.4527,-180.4 357.5282,-180.4"/>
</g>
<!-- Chemists -->
<g id="node10" class="node">
<title>Chemists</title>
<path fill="none" stroke="#000000" d="M519.4015,-198.4C519.4015,-198.4 488.5985,-198.4 488.5985,-198.4 482.5985,-198.4 476.5985,-192.4 476.5985,-186.4 476.5985,-186.4 476.5985,-174.4 476.5985,-174.4 476.5985,-168.4 482.5985,-162.4 488.5985,-162.4 488.5985,-162.4 519.4015,-162.4 519.4015,-162.4 525.4015,-162.4 531.4015,-168.4 531.4015,-174.4 531.4015,-174.4 531.4015,-186.4 531.4015,-186.4 531.4015,-192.4 525.4015,-198.4 519.4015,-198.4"/>
<text text-anchor="middle" x="504" y="-178.8" font-family="Fira Code" font-size="8.00" fill="#000000">Chemists</text>
</g>
<!-- ChemistBackupTeam&#45;&#45;Chemists -->
<g id="edge4" class="edge">
<title>ChemistBackupTeam&#45;&#45;Chemists</title>
<path fill="none" stroke="#000000" stroke-width="5" d="M426.5176,-180.4C442.5861,-180.4 461.4359,-180.4 476.5199,-180.4"/>
</g>
<!-- BuyerProductChampion -->
<g id="node6" class="node">
<title>BuyerProductChampion</title>
<polygon fill="#303030" stroke="#000000" points="304.7002,-144.4 212.0998,-144.4 212.0998,-108.4 304.7002,-108.4 304.7002,-144.4"/>
<text text-anchor="middle" x="258.4" y="-129.5999" font-family="Fira Code" font-size="8.00" fill="#ffffff">Buyer</text>
<text text-anchor="middle" x="258.4" y="-120" font-family="Fira Code" font-size="8.00" fill="#ffffff">Product Champion</text>
</g>
<!-- Analyst2&#45;&#45;BuyerProductChampion -->
<g id="edge6" class="edge">
<title>Analyst2&#45;&#45;BuyerProductChampion</title>
<path fill="none" stroke="#000000" d="M173.7983,-115.8247C185.3257,-117.2657 199.0633,-118.9829 212.0811,-120.6101"/>
</g>
<!-- HealthAndSafetyChampion -->
<g id="node7" class="node">
<title>HealthAndSafetyChampion</title>
<polygon fill="#303030" stroke="#000000" points="307.0008,-90.4 209.7992,-90.4 209.7992,-54.4 307.0008,-54.4 307.0008,-90.4"/>
<text text-anchor="middle" x="258.4" y="-75.5999" font-family="Fira Code" font-size="8.00" fill="#ffffff">Health and Safety</text>
<text text-anchor="middle" x="258.4" y="-66" font-family="Fira Code" font-size="8.00" fill="#ffffff">Product Champion</text>
</g>
<!-- Analyst2&#45;&#45;HealthAndSafetyChampion -->
<g id="edge8" class="edge">
<title>Analyst2&#45;&#45;HealthAndSafetyChampion</title>
<path fill="none" stroke="#000000" d="M173.7983,-102.6149C184.5485,-98.7755 197.2211,-94.2496 209.4394,-89.8859"/>
</g>
<!-- Buyers -->
<g id="node11" class="node">
<title>Buyers</title>
<path fill="none" stroke="#000000" d="M407,-144.4C407,-144.4 377,-144.4 377,-144.4 371,-144.4 365,-138.4 365,-132.4 365,-132.4 365,-120.4 365,-120.4 365,-114.4 371,-108.4 377,-108.4 377,-108.4 407,-108.4 407,-108.4 413,-108.4 419,-114.4 419,-120.4 419,-120.4 419,-132.4 419,-132.4 419,-138.4 413,-144.4 407,-144.4"/>
<text text-anchor="middle" x="392" y="-124.8" font-family="Fira Code" font-size="8.00" fill="#000000">Buyers</text>
</g>
<!-- BuyerProductChampion&#45;&#45;Buyers -->
<g id="edge7" class="edge">
<title>BuyerProductChampion&#45;&#45;Buyers</title>
<path fill="none" stroke="#000000" stroke-width="5" d="M304.7519,-126.4C324.7989,-126.4 347.5652,-126.4 364.8143,-126.4"/>
</g>
<!-- HealthAndSafetyTeam -->
<g id="node12" class="node">
<title>HealthAndSafetyTeam</title>
<path fill="none" stroke="#000000" d="M428.6008,-90.4C428.6008,-90.4 355.3992,-90.4 355.3992,-90.4 349.3992,-90.4 343.3992,-84.4 343.3992,-78.4 343.3992,-78.4 343.3992,-66.4 343.3992,-66.4 343.3992,-60.4 349.3992,-54.4 355.3992,-54.4 355.3992,-54.4 428.6008,-54.4 428.6008,-54.4 434.6008,-54.4 440.6008,-60.4 440.6008,-66.4 440.6008,-66.4 440.6008,-78.4 440.6008,-78.4 440.6008,-84.4 434.6008,-90.4 428.6008,-90.4"/>
<text text-anchor="middle" x="392" y="-75.5999" font-family="Fira Code" font-size="8.00" fill="#000000">Health and Safety</text>
<text text-anchor="middle" x="392" y="-66" font-family="Fira Code" font-size="8.00" fill="#000000">Department Staff</text>
</g>
<!-- HealthAndSafetyChampion&#45;&#45;HealthAndSafetyTeam -->
<g id="edge9" class="edge">
<title>HealthAndSafetyChampion&#45;&#45;HealthAndSafetyTeam</title>
<path fill="none" stroke="#000000" stroke-width="5" d="M307.0106,-72.4C318.7987,-72.4 331.4049,-72.4 343.2017,-72.4"/>
</g>
<!-- StockroomChampion -->
<g id="node9" class="node">
<title>StockroomChampion</title>
<polygon fill="#303030" stroke="#000000" points="288.1003,-36.7004 228.6997,-36.7004 228.6997,-.0995 288.1003,-.0995 288.1003,-36.7004"/>
<text text-anchor="middle" x="258.4" y="-26.3999" font-family="Fira Code" font-size="8.00" fill="#ffffff">Stockroom</text>
<text text-anchor="middle" x="258.4" y="-16.8" font-family="Fira Code" font-size="8.00" fill="#ffffff">Product</text>
<text text-anchor="middle" x="258.4" y="-7.2" font-family="Fira Code" font-size="8.00" fill="#ffffff">Champion</text>
</g>
<!-- Analyst3&#45;&#45;StockroomChampion -->
<g id="edge11" class="edge">
<title>Analyst3&#45;&#45;StockroomChampion</title>
<path fill="none" stroke="#000000" d="M173.7983,-38.795C190.377,-34.7984 211.5274,-29.6996 228.5332,-25.6"/>
</g>
<!-- StockroomTeam -->
<g id="node13" class="node">
<title>StockroomTeam</title>
<path fill="none" stroke="#000000" d="M409.7003,-36.4C409.7003,-36.4 374.2997,-36.4 374.2997,-36.4 368.2997,-36.4 362.2997,-30.4 362.2997,-24.4 362.2997,-24.4 362.2997,-12.4 362.2997,-12.4 362.2997,-6.4 368.2997,-.4 374.2997,-.4 374.2997,-.4 409.7003,-.4 409.7003,-.4 415.7003,-.4 421.7003,-6.4 421.7003,-12.4 421.7003,-12.4 421.7003,-24.4 421.7003,-24.4 421.7003,-30.4 415.7003,-36.4 409.7003,-36.4"/>
<text text-anchor="middle" x="392" y="-21.5999" font-family="Fira Code" font-size="8.00" fill="#000000">Stockroom</text>
<text text-anchor="middle" x="392" y="-12" font-family="Fira Code" font-size="8.00" fill="#000000">Team</text>
</g>
<!-- StockroomChampion&#45;&#45;StockroomTeam -->
<g id="edge12" class="edge">
<title>StockroomChampion&#45;&#45;StockroomTeam</title>
<path fill="none" stroke="#000000" stroke-width="5" d="M288.0502,-18.4C310.0362,-18.4 339.8949,-18.4 361.9707,-18.4"/>
</g>
</g>
</svg>
