<?xml version="1.0" encoding="UTF-8" standalone="no"?>
<!DOCTYPE svg PUBLIC "-//W3C//DTD SVG 1.1//EN"
 "http://www.w3.org/Graphics/SVG/1.1/DTD/svg11.dtd">
<!-- Generated by graphviz version 2.40.1 (20161225.0304)
 -->
<!-- Title: std Pages: 1 -->
<svg width="451pt" height="408pt"
 viewBox="0.00 0.00 451.30 408.35" xmlns="http://www.w3.org/2000/svg" xmlns:xlink="http://www.w3.org/1999/xlink">
<g id="graph0" class="graph" transform="scale(1 1) rotate(0) translate(4 404.3516)">
<title>std</title>
<polygon fill="#ffffff" stroke="transparent" points="-4,4 -4,-404.3516 447.3024,-404.3516 447.3024,4 -4,4"/>
<!-- InPrep -->
<g id="node1" class="node">
<title>InPrep</title>
<polygon fill="#006400" stroke="#000000" points="321.7665,-400.3516 255.6064,-400.3516 255.6064,-364.3516 321.7665,-364.3516 321.7665,-400.3516"/>
<text text-anchor="middle" x="288.6864" y="-380.7235" font-family="Helvetica Neue" font-size="8.00" fill="#ffffff">In Preparation</text>
</g>
<!-- Postponed -->
<g id="node2" class="node">
<title>Postponed</title>
<polygon fill="none" stroke="#000000" points="412.3065,-309.2637 357.0663,-309.2637 357.0663,-273.2637 412.3065,-273.2637 412.3065,-309.2637"/>
<text text-anchor="middle" x="384.6864" y="-289.6356" font-family="Helvetica Neue" font-size="8.00" fill="#0000ff">Postponed</text>
</g>
<!-- InPrep&#45;&gt;Postponed -->
<g id="edge1" class="edge">
<title>InPrep&#45;&gt;Postponed</title>
<path fill="none" stroke="#000000" d="M321.8707,-372.2698C335.9876,-366.575 351.6939,-358.1752 362.6864,-346.3516 370.9563,-337.4564 376.2757,-325.0653 379.6079,-314.2874"/>
<polygon fill="#000000" stroke="#000000" points="381.2939,-314.7566 381.0026,-309.4672 377.9318,-313.7838 381.2939,-314.7566"/>
<text text-anchor="middle" x="408.9944" y="-339.9516" font-family="Helvetica Neue" font-size="8.00" fill="#ff0000">requester saves</text>
<text text-anchor="middle" x="408.9944" y="-330.4076" font-family="Helvetica Neue" font-size="8.00" fill="#ff0000">incomplete request</text>
</g>
<!-- Accepted -->
<g id="node3" class="node">
<title>Accepted</title>
<polygon fill="none" stroke="#000000" points="184.6864,-309.2637 130.6864,-309.2637 130.6864,-273.2637 184.6864,-273.2637 184.6864,-309.2637"/>
<text text-anchor="middle" x="157.6864" y="-289.6356" font-family="Helvetica Neue" font-size="8.00" fill="#0000ff">Accepted</text>
</g>
<!-- InPrep&#45;&gt;Accepted -->
<g id="edge2" class="edge">
<title>InPrep&#45;&gt;Accepted</title>
<path fill="none" stroke="#000000" d="M255.6246,-367.2947C243.8131,-361.3737 230.6466,-354.1295 219.3744,-346.3516 205.1465,-336.5342 190.6578,-323.7673 179.3002,-312.9964"/>
<polygon fill="#000000" stroke="#000000" points="180.395,-311.6217 175.5735,-309.4273 177.9742,-314.1495 180.395,-311.6217"/>
<text text-anchor="middle" x="246.8424" y="-339.9516" font-family="Helvetica Neue" font-size="8.00" fill="#ff0000">system accepts</text>
<text text-anchor="middle" x="246.8424" y="-330.4076" font-family="Helvetica Neue" font-size="8.00" fill="#ff0000">valid request</text>
</g>
<!-- Postponed&#45;&gt;InPrep -->
<g id="edge3" class="edge">
<title>Postponed&#45;&gt;InPrep</title>
<path fill="none" stroke="#000000" d="M356.8037,-297.5845C330.4597,-304.1882 293.7541,-315.2464 285.3264,-327.2637 278.9438,-336.3649 279.0363,-348.5308 281.0458,-359.1145"/>
<polygon fill="#000000" stroke="#000000" points="279.3744,-359.6608 282.1664,-364.1627 282.7912,-358.9023 279.3744,-359.6608"/>
<text text-anchor="middle" x="321.3664" y="-339.9516" font-family="Helvetica Neue" font-size="8.00" fill="#ff0000">requester retrieves</text>
<text text-anchor="middle" x="321.3664" y="-330.4076" font-family="Helvetica Neue" font-size="8.00" fill="#ff0000">incompleted request</text>
</g>
<!-- Canceled -->
<g id="node7" class="node">
<title>Canceled</title>
<polygon fill="#ff0000" stroke="#000000" points="306.6864,-36 252.6864,-36 252.6864,0 306.6864,0 306.6864,-36"/>
<text text-anchor="middle" x="279.6864" y="-16.372" font-family="Helvetica Neue" font-size="8.00" fill="#ffffff">Canceled</text>
</g>
<!-- Postponed&#45;&gt;Canceled -->
<g id="edge4" class="edge">
<title>Postponed&#45;&gt;Canceled</title>
<path fill="none" stroke="#000000" d="M385.4893,-273.0348C386.4229,-230.1323 383.1072,-121.3358 330.6864,-54 325.3385,-47.1304 318.3253,-41.0274 311.2185,-35.8863"/>
<polygon fill="#000000" stroke="#000000" points="311.8997,-34.2286 306.7954,-32.8113 309.9018,-37.1023 311.8997,-34.2286"/>
<text text-anchor="middle" x="403.9144" y="-157.7758" font-family="Helvetica Neue" font-size="8.00" fill="#ff0000">requester</text>
<text text-anchor="middle" x="403.9144" y="-148.2318" font-family="Helvetica Neue" font-size="8.00" fill="#ff0000">cancels request</text>
</g>
<!-- Placed -->
<g id="node4" class="node">
<title>Placed</title>
<polygon fill="none" stroke="#000000" points="171.6864,-218.1758 117.6864,-218.1758 117.6864,-182.1758 171.6864,-182.1758 171.6864,-218.1758"/>
<text text-anchor="middle" x="144.6864" y="-198.5478" font-family="Helvetica Neue" font-size="8.00" fill="#0000ff">Placed</text>
</g>
<!-- Accepted&#45;&gt;Placed -->
<g id="edge6" class="edge">
<title>Accepted&#45;&gt;Placed</title>
<path fill="none" stroke="#000000" d="M155.0557,-272.8307C153.016,-258.539 150.177,-238.6473 147.9853,-223.2901"/>
<polygon fill="#000000" stroke="#000000" points="149.7078,-222.9731 147.2689,-218.2705 146.243,-223.4676 149.7078,-222.9731"/>
<text text-anchor="middle" x="184.0944" y="-248.8637" font-family="Helvetica Neue" font-size="8.00" fill="#ff0000">buyer places</text>
<text text-anchor="middle" x="184.0944" y="-239.3197" font-family="Helvetica Neue" font-size="8.00" fill="#ff0000">order with vendor</text>
</g>
<!-- Fulfilled -->
<g id="node5" class="node">
<title>Fulfilled</title>
<polygon fill="#ff0000" stroke="#000000" points="88.6864,-36 34.6864,-36 34.6864,0 88.6864,0 88.6864,-36"/>
<text text-anchor="middle" x="61.6864" y="-16.372" font-family="Helvetica Neue" font-size="8.00" fill="#ffffff">Fulfilled</text>
</g>
<!-- Accepted&#45;&gt;Fulfilled -->
<g id="edge5" class="edge">
<title>Accepted&#45;&gt;Fulfilled</title>
<path fill="none" stroke="#000000" d="M130.6777,-278.1498C94.535,-258.8991 32.0169,-219.2156 6.3664,-164.1758 -13.5165,-121.5119 18.9471,-69.5493 41.9452,-40.4793"/>
<polygon fill="#000000" stroke="#000000" points="43.4893,-41.3522 45.2624,-36.3603 40.7633,-39.1569 43.4893,-41.3522"/>
<text text-anchor="middle" x="42.8464" y="-157.7758" font-family="Helvetica Neue" font-size="8.00" fill="#ff0000">chemical stockroom</text>
<text text-anchor="middle" x="42.8464" y="-148.2318" font-family="Helvetica Neue" font-size="8.00" fill="#ff0000">fills request</text>
</g>
<!-- Accepted&#45;&gt;Canceled -->
<g id="edge7" class="edge">
<title>Accepted&#45;&gt;Canceled</title>
<path fill="none" stroke="#000000" d="M184.8873,-279.033C196.4636,-272.9712 209.5925,-264.8787 219.6864,-255.2637 268.8276,-208.4537 283.4535,-192.1734 302.6864,-127.0879 311.3043,-97.9241 300.6804,-63.4675 291.1874,-41.2002"/>
<polygon fill="#000000" stroke="#000000" points="292.676,-40.2376 289.0618,-36.3646 289.4719,-41.6462 292.676,-40.2376"/>
<text text-anchor="middle" x="320.9104" y="-157.7758" font-family="Helvetica Neue" font-size="8.00" fill="#ff0000">requester</text>
<text text-anchor="middle" x="320.9104" y="-148.2318" font-family="Helvetica Neue" font-size="8.00" fill="#ff0000">cancels order</text>
</g>
<!-- Placed&#45;&gt;Fulfilled -->
<g id="edge8" class="edge">
<title>Placed&#45;&gt;Fulfilled</title>
<path fill="none" stroke="#000000" d="M118.2549,-182.0385C101.4295,-168.8996 80.8955,-149.5469 70.4144,-127.0879 57.6948,-99.8321 57.3689,-64.5696 58.9725,-41.6259"/>
<polygon fill="#000000" stroke="#000000" points="60.7396,-41.4784 59.39,-36.3558 57.2505,-41.2019 60.7396,-41.4784"/>
<text text-anchor="middle" x="92.3224" y="-117.0038" font-family="Helvetica Neue" font-size="8.00" fill="#ff0000">chemical</text>
<text text-anchor="middle" x="92.3224" y="-107.4599" font-family="Helvetica Neue" font-size="8.00" fill="#ff0000">received</text>
<text text-anchor="middle" x="92.3224" y="-97.9159" font-family="Helvetica Neue" font-size="8.00" fill="#ff0000">from vendor</text>
</g>
<!-- BackOrdered -->
<g id="node6" class="node">
<title>BackOrdered</title>
<polygon fill="none" stroke="#000000" points="188.2344,-127.0879 123.1384,-127.0879 123.1384,-91.0879 188.2344,-91.0879 188.2344,-127.0879"/>
<text text-anchor="middle" x="155.6864" y="-107.4599" font-family="Helvetica Neue" font-size="8.00" fill="#0000ff">Back&#45;ordered</text>
</g>
<!-- Placed&#45;&gt;BackOrdered -->
<g id="edge9" class="edge">
<title>Placed&#45;&gt;BackOrdered</title>
<path fill="none" stroke="#000000" d="M142.9562,-181.7023C142.3288,-170.9538 142.1768,-157.1818 144.0784,-145.0879 144.7529,-140.7982 145.8534,-136.3227 147.1149,-132.0436"/>
<polygon fill="#000000" stroke="#000000" points="148.8283,-132.4279 148.6538,-127.1334 145.4885,-131.3811 148.8283,-132.4279"/>
<text text-anchor="middle" x="186.9904" y="-157.7758" font-family="Helvetica Neue" font-size="8.00" fill="#ff0000">vendor places chemical</text>
<text text-anchor="middle" x="186.9904" y="-148.2318" font-family="Helvetica Neue" font-size="8.00" fill="#ff0000">in back&#45;order</text>
</g>
<!-- Placed&#45;&gt;Canceled -->
<g id="edge10" class="edge">
<title>Placed&#45;&gt;Canceled</title>
<path fill="none" stroke="#000000" d="M171.8575,-194.5946C190.1692,-189.5281 213.6407,-180.3005 228.6864,-164.1758 233.0407,-159.5092 259.0169,-81.2735 272.1271,-41.2258"/>
<polygon fill="#000000" stroke="#000000" points="273.9214,-41.369 273.8121,-36.0727 270.5947,-40.2812 273.9214,-41.369"/>
<text text-anchor="middle" x="277.5784" y="-117.0038" font-family="Helvetica Neue" font-size="8.00" fill="#ff0000">buyer</text>
<text text-anchor="middle" x="277.5784" y="-107.4599" font-family="Helvetica Neue" font-size="8.00" fill="#ff0000">cancels</text>
<text text-anchor="middle" x="277.5784" y="-97.9159" font-family="Helvetica Neue" font-size="8.00" fill="#ff0000">vendor order</text>
</g>
<!-- BackOrdered&#45;&gt;Fulfilled -->
<g id="edge11" class="edge">
<title>BackOrdered&#45;&gt;Fulfilled</title>
<path fill="none" stroke="#000000" d="M122.8745,-93.4301C113.2703,-87.8688 103.2163,-80.9954 95.2304,-73.0879 85.8315,-63.7813 77.9644,-51.3343 72.2167,-40.6266"/>
<polygon fill="#000000" stroke="#000000" points="73.7496,-39.7813 69.8848,-36.1583 70.6467,-41.4006 73.7496,-39.7813"/>
<text text-anchor="middle" x="127.9144" y="-66.6879" font-family="Helvetica Neue" font-size="8.00" fill="#ff0000">chemical received</text>
<text text-anchor="middle" x="127.9144" y="-57.1439" font-family="Helvetica Neue" font-size="8.00" fill="#ff0000">from vendor</text>
</g>
<!-- BackOrdered&#45;&gt;Canceled -->
<g id="edge12" class="edge">
<title>BackOrdered&#45;&gt;Canceled</title>
<path fill="none" stroke="#000000" d="M160.7362,-91.0504C164.9175,-79.0985 171.9722,-63.8609 182.9024,-54 200.9409,-37.7261 227.0026,-28.5938 247.5384,-23.6023"/>
<polygon fill="#000000" stroke="#000000" points="248.1569,-25.2554 252.6321,-22.4207 247.3659,-21.8459 248.1569,-25.2554"/>
<text text-anchor="middle" x="206.5784" y="-66.6879" font-family="Helvetica Neue" font-size="8.00" fill="#ff0000">buer cancels</text>
<text text-anchor="middle" x="206.5784" y="-57.1439" font-family="Helvetica Neue" font-size="8.00" fill="#ff0000">vendor order</text>
</g>
</g>
</svg>
